<svg width="100" height="66" viewBox="0 0 100 66" fill="none" xmlns="http://www.w3.org/2000/svg">
<path d="M61.4004 22.4497C63.0432 22.4497 64.6861 22.4497 66.3787 22.4497C66.4026 24.5211 66.4264 26.5926 66.4509 28.7268C66.6176 28.5601 66.7842 28.3934 66.9559 28.2217C68.1121 27.337 69.6314 27.2095 71.0327 27.3776C72.0019 27.5432 72.8994 27.97 73.49 28.7719C74.3156 30.0075 74.3468 31.2516 74.3364 32.6877C74.336 32.8529 74.3357 33.018 74.3355 33.1832C74.3346 33.6147 74.3325 34.0462 74.3301 34.4777C74.3279 34.9193 74.3269 35.3609 74.3258 35.8025C74.3235 36.6667 74.3198 37.5308 74.3153 38.3949C74.72 38.3949 75.1248 38.3949 75.5418 38.3949C75.5418 38.5615 75.5418 38.7282 75.5418 38.8999C73.518 38.8999 71.4942 38.8999 69.409 38.8999C69.409 38.7333 69.409 38.5666 69.409 38.3949C69.8138 38.3949 70.2186 38.3949 70.6356 38.3949C70.6328 37.3894 70.6285 36.384 70.6223 35.3785C70.6195 34.9116 70.6172 34.4446 70.616 33.9776C70.6149 33.5262 70.6125 33.0747 70.609 32.6233C70.608 32.4519 70.6074 32.2804 70.6073 32.109C70.6507 30.4077 70.6507 30.4077 69.9609 28.9057C69.4794 28.4733 68.9947 28.4154 68.3679 28.4238C67.6492 28.4639 67.2239 28.7794 66.7395 29.304C66.392 29.7034 66.4092 30.0657 66.4115 30.5808C66.4104 30.7076 66.4104 30.7076 66.4092 30.8369C66.4071 31.1156 66.407 31.3943 66.4069 31.6731C66.4058 31.8666 66.4047 32.0601 66.4033 32.2536C66.4004 32.7104 66.3989 33.1673 66.398 33.6242C66.3968 34.1445 66.3941 34.6648 66.3912 35.1851C66.3852 36.255 66.3814 37.3249 66.3787 38.3949C66.7835 38.3949 67.1883 38.3949 67.6053 38.3949C67.6053 38.5615 67.6053 38.7282 67.6053 38.8999C65.5815 38.8999 63.5577 38.8999 61.4725 38.8999C61.4725 38.7333 61.4725 38.5666 61.4725 38.3949C61.8535 38.3949 62.2344 38.3949 62.6269 38.3949C62.6269 33.2996 62.6269 28.2044 62.6269 22.9548C62.2222 22.9548 61.8174 22.9548 61.4004 22.9548C61.4004 22.7881 61.4004 22.6214 61.4004 22.4497Z" fill="#282262"/>
<path d="M12.9863 25.1914C17.8673 25.1914 22.7482 25.1914 27.7771 25.1914C27.7771 25.3581 27.7771 25.5247 27.7771 25.6965C26.9676 25.6965 26.158 25.6965 25.324 25.6965C25.324 30.0536 25.324 34.4107 25.324 38.8999C24.2049 38.8999 23.0859 38.8999 21.9329 38.8999C21.9091 37.8523 21.8853 36.8047 21.8608 35.7253C21.6703 35.9158 21.4798 36.1063 21.2836 36.3025C20.312 37.0375 19.1011 37.2825 17.9109 37.1348C16.7382 36.9319 15.7824 36.3664 15.0606 35.4147C14.5077 34.5631 14.317 33.5691 14.3301 32.5688C14.3313 32.4458 14.3313 32.4458 14.3325 32.3204C14.3579 30.9739 14.6386 29.8276 15.6071 28.8282C16.6125 27.9241 17.7213 27.6499 19.0361 27.706C19.6632 27.7491 20.236 27.9369 20.7064 28.366C20.7302 28.4374 20.754 28.5089 20.7785 28.5825C20.7309 28.6539 20.6833 28.7253 20.6342 28.7989C20.5941 28.7877 20.5539 28.7764 20.5125 28.7648C20.018 28.6387 19.6392 28.6021 19.1732 28.853C18.5123 29.3938 18.2305 30.2418 18.125 31.0701C18.0907 31.4593 18.0881 31.8491 18.0864 32.2396C18.086 32.3209 18.0856 32.4023 18.0852 32.4862C18.0942 33.5401 18.2351 34.6039 18.9917 35.3967C19.3704 35.7302 19.8177 35.8298 20.3093 35.8217C20.7822 35.7582 21.1688 35.5274 21.4595 35.1526C21.5569 35.0146 21.5569 35.0146 21.6443 34.8595C21.6813 34.8026 21.7182 34.7456 21.7563 34.6869C21.9061 34.3137 21.8925 33.9681 21.892 33.5694C21.8927 33.4821 21.8935 33.3948 21.8942 33.3049C21.8964 33.0229 21.8971 32.7409 21.8977 32.4588C21.8988 32.2845 21.9 32.1101 21.9013 31.9358C21.9055 31.29 21.9078 30.6442 21.9104 29.9984C21.9215 27.8332 21.9215 27.8332 21.9329 25.6243C18.9806 25.6243 16.0282 25.6243 12.9863 25.6243C12.9863 25.4814 12.9863 25.3386 12.9863 25.1914Z" fill="#272161"/>
<path d="M8.25748 25.5021C8.33116 25.5271 8.40483 25.552 8.48073 25.5778C8.57897 25.612 8.57897 25.612 8.6792 25.6469C8.89765 25.7023 9.08283 25.7127 9.30736 25.6964C9.55794 25.4804 9.56549 25.2196 9.59596 24.9028C9.76263 24.9028 9.92929 24.9028 10.101 24.9028C10.101 26.4028 10.101 27.9028 10.101 29.4482C9.93434 29.4482 9.76768 29.4482 9.59596 29.4482C9.58536 29.3645 9.57475 29.2808 9.56383 29.1946C9.3942 27.969 8.97445 27.0591 7.96356 26.2917C6.92074 25.6067 5.70531 25.3751 4.4733 25.48C3.85556 25.637 3.50016 26.0274 3.1746 26.5622C3.02312 27.0167 3.01511 27.5956 3.21519 28.0368C3.75827 28.9307 5.00197 29.3641 5.92081 29.7458C6.11047 29.8263 6.29978 29.9076 6.489 29.9891C6.53688 30.0097 6.58476 30.0303 6.6341 30.0515C9.20095 31.1616 9.20095 31.1616 10.101 31.9735C10.1635 32.0209 10.226 32.0683 10.2904 32.1172C10.8651 32.603 11.2376 33.5498 11.3276 34.2823C11.3678 34.9644 11.3238 35.5776 11.1111 36.2303C11.0755 36.345 11.0755 36.345 11.0392 36.462C10.687 37.4882 10.0598 38.2093 9.10585 38.7189C7.40881 39.528 5.39225 39.4451 3.64358 38.8458C3.13551 38.6638 2.64779 38.4446 2.16281 38.2085C1.77536 38.024 1.4352 37.9751 1.0101 38.0341C0.725394 38.2258 0.662289 38.3341 0.590729 38.6699C0.586264 38.7458 0.5818 38.8217 0.577201 38.8999C0.386724 38.8999 0.196248 38.8999 0 38.8999C0 37.0189 0 35.138 0 33.2C0.166667 33.2 0.333333 33.2 0.50505 33.2C0.511904 33.241 0.518757 33.282 0.525818 33.3242C0.832011 35.122 1.40896 36.5035 2.88572 37.666C3.86904 38.3539 4.90068 38.6324 6.08315 38.6519C6.15545 38.6538 6.22775 38.6558 6.30224 38.6578C6.87224 38.6548 7.35679 38.5153 7.78592 38.125C8.26625 37.6099 8.34709 37.1199 8.33136 36.4276C8.26645 35.9147 8.01954 35.5432 7.62536 35.2157C6.76922 34.6439 5.8147 34.2387 4.87915 33.8178C1.23703 32.1777 1.23703 32.1777 0.50505 30.4583C0.191945 29.4194 0.402705 28.1129 0.87482 27.1665C1.46695 26.1287 2.34513 25.4538 3.4632 25.0471C5.07831 24.6153 6.71956 24.9743 8.25748 25.5021Z" fill="#272261"/>
<path d="M49.9329 28.2532C50.4342 28.6837 50.8153 29.1077 50.8866 29.7852C50.9048 30.3324 50.8135 30.7683 50.4785 31.2068C50.1953 31.4901 49.9408 31.5614 49.5451 31.5631C49.1146 31.5527 48.7508 31.5063 48.4285 31.2023C48.1031 30.8322 48.0195 30.59 48.0221 30.0944C48.0727 29.7397 48.267 29.5062 48.4854 29.2317C48.6583 28.9781 48.7509 28.8208 48.7018 28.5102C48.552 28.3271 48.4158 28.252 48.1923 28.181C48.1174 28.1563 48.1174 28.1563 48.0409 28.1311C47.4664 27.9802 46.92 27.9049 46.3254 27.906C46.2558 27.9061 46.1863 27.9062 46.1146 27.9063C45.4207 27.9183 44.8502 28.0679 44.3007 28.5102C43.9714 28.8761 43.8314 29.1569 43.8458 29.6474C43.896 30.0159 44.1293 30.2332 44.4044 30.4583C44.9501 30.8431 45.5636 31.0817 46.1977 31.2767C46.2719 31.2996 46.2719 31.2996 46.3476 31.323C46.6691 31.4218 46.9914 31.5179 47.3139 31.6132C47.5357 31.6788 47.7575 31.7448 47.9792 31.8109C48.0917 31.8443 48.2044 31.8773 48.3172 31.9101C49.5601 32.2721 50.6555 32.7681 51.412 33.8744C51.7035 34.4122 51.7701 34.8495 51.7637 35.4547C51.7631 35.5283 51.7624 35.602 51.7617 35.6779C51.7405 36.6008 51.4865 37.2682 50.8663 37.9619C49.7244 39.0404 48.3074 39.205 46.7944 39.2065C46.717 39.2066 46.717 39.2066 46.6381 39.2067C45.8612 39.2059 45.1287 39.1655 44.3728 38.972C44.2856 38.9519 44.1984 38.9318 44.1085 38.9111C43.0783 38.6507 42.0899 38.1334 41.4778 37.2359C41.232 36.7389 41.2504 36.06 41.3955 35.5327C41.5561 35.182 41.7954 34.9577 42.1362 34.7873C43.2283 34.6938 43.2283 34.6938 43.6863 35.0443C43.9761 35.3192 44.1656 35.5484 44.1789 35.9507C44.1716 36.4589 43.944 36.7907 43.6288 37.1727C43.4733 37.3678 43.4733 37.3678 43.4233 37.6054C43.4428 37.76 43.4428 37.76 43.507 37.9619C43.5561 37.9812 43.6053 38.0006 43.6559 38.0205C43.8054 38.0809 43.9534 38.1453 44.1 38.2124C44.3643 38.3258 44.6265 38.3863 44.9095 38.4399C44.9987 38.4572 45.0878 38.4745 45.1797 38.4923C46.3743 38.6953 47.9077 38.8795 48.9924 38.2358C49.2275 38.061 49.3589 37.8848 49.4233 37.6011C49.4821 37.1815 49.4402 36.8609 49.1911 36.5121C48.4408 35.7092 47.1961 35.4491 46.1707 35.1728C42.5778 34.2004 42.5778 34.2004 41.7033 32.7671C41.2865 31.9719 41.1864 31.0075 41.4237 30.1336C41.8175 29.0707 42.5875 28.3735 43.5792 27.8609C45.4237 27.0552 48.2507 27.0138 49.9329 28.2532Z" fill="#282261"/>
<path d="M84.3441 27.5723C85.6775 27.5723 87.0108 27.5723 88.3845 27.5723C88.3845 27.7627 88.3845 27.9532 88.3845 28.1495C87.6345 28.1852 87.6345 28.1852 86.8694 28.2216C86.8028 28.3758 86.7362 28.53 86.6676 28.6889C84.7047 33.2328 84.7047 33.2328 83.7516 35.3925C83.5155 35.9279 83.2824 36.4645 83.0499 37.0014C82.9932 37.1322 82.9932 37.1322 82.9353 37.2657C82.7154 37.7729 82.4964 38.2805 82.2785 38.7885C82.1526 39.0819 82.0261 39.3752 81.8996 39.6684C81.8379 39.8119 81.7763 39.9554 81.7149 40.0991C81.4035 40.8278 81.0831 41.5488 80.7177 42.2523C80.6895 42.3073 80.6612 42.3623 80.6321 42.419C80.2292 43.1772 79.6386 43.8622 78.8176 44.1634C77.9216 44.4287 76.8466 44.4466 76.0085 43.9966C75.5431 43.7034 75.1695 43.3479 75.0368 42.7959C74.9638 42.144 75.0068 41.6052 75.3975 41.0643C75.7142 40.7041 76.0972 40.5081 76.5694 40.4666C77.2923 40.4487 77.8552 40.5412 78.4289 40.9956C78.6615 41.2244 78.8404 41.4877 79.0222 41.7576C79.1453 41.9452 79.1453 41.9452 79.3658 42.0744C79.662 42.1223 79.662 42.1223 79.943 42.0744C80.2719 41.7507 80.4396 41.3854 80.6194 40.9651C80.6469 40.9021 80.6744 40.839 80.7028 40.774C80.7591 40.645 80.8151 40.5158 80.8709 40.3866C80.9484 40.2092 81.0284 40.0332 81.1098 39.8575C81.1336 39.8053 81.1575 39.753 81.1821 39.6992C81.2268 39.6015 81.272 39.504 81.3179 39.4067C81.4327 39.1515 81.4772 39.0189 81.386 38.7555C81.3215 38.6187 81.2535 38.4834 81.1833 38.3494C81.1417 38.2695 81.1001 38.1896 81.0572 38.1073C81.012 38.0213 80.9668 37.9352 80.9215 37.8491C80.875 37.7601 80.8285 37.6711 80.782 37.5821C80.6893 37.4046 80.5964 37.2273 80.5033 37.0501C80.3974 36.8485 80.2919 36.6468 80.1865 36.445C79.8133 35.7318 79.4328 35.0226 79.0519 34.3135C78.739 33.731 78.4301 33.1466 78.1257 32.5596C77.8173 31.965 77.5028 31.3741 77.175 30.7898C76.99 30.4572 76.8163 30.1234 76.6592 29.7765C76.5767 29.5948 76.4913 29.4144 76.406 29.2341C76.3459 29.104 76.29 28.9719 76.2343 28.8399C76.1178 28.5953 76.0229 28.4128 75.8304 28.2216C75.4878 28.128 75.1731 28.1232 74.8203 28.1495C74.8203 27.9828 74.8203 27.8161 74.8203 27.6444C76.987 27.6444 79.1536 27.6444 81.386 27.6444C81.386 27.8111 81.386 27.9777 81.386 28.1495C81.0288 28.1733 80.6717 28.1971 80.3037 28.2216C81.1641 29.9663 81.1641 29.9663 82.0579 31.6938C82.3382 32.219 82.6086 32.7491 82.8759 33.281C82.9225 33.3737 82.9691 33.4663 83.0159 33.5589C83.0811 33.688 83.1459 33.8172 83.2106 33.9466C83.2483 34.0217 83.286 34.0969 83.3249 34.1743C83.4062 34.3544 83.4062 34.3544 83.4062 34.4987C83.4538 34.4987 83.5014 34.4987 83.5505 34.4987C83.5589 34.4475 83.5674 34.3963 83.5761 34.3436C83.6256 34.1248 83.6992 33.9386 83.7892 33.7332C83.8246 33.6519 83.8601 33.5705 83.8966 33.4867C83.936 33.3971 83.9755 33.3076 84.0149 33.218C84.056 33.124 84.0971 33.0301 84.1381 32.9361C84.2529 32.6734 84.3682 32.4109 84.4836 32.1485C84.5645 31.9644 84.6454 31.7803 84.7263 31.5961C84.7547 31.5316 84.783 31.4671 84.8122 31.4007C84.8702 31.2687 84.9282 31.1366 84.9862 31.0046C85.1283 30.6808 85.2706 30.3572 85.4132 30.0336C85.4665 29.9127 85.5197 29.7917 85.5729 29.6708C85.6083 29.5908 85.6083 29.5908 85.6444 29.5091C85.8426 29.0582 86.0305 28.6044 86.22 28.1495C85.601 28.1495 84.9819 28.1495 84.3441 28.1495C84.3441 27.959 84.3441 27.7685 84.3441 27.5723Z" fill="#282362"/>
<path d="M57.2145 23.8926C57.3335 23.8926 57.4525 23.8926 57.5752 23.8926C57.5752 25.1307 57.5752 26.3688 57.5752 27.6444C58.5276 27.6444 59.48 27.6444 60.4612 27.6444C60.4612 27.7872 60.4612 27.9301 60.4612 28.0773C59.5088 28.0773 58.5564 28.0773 57.5752 28.0773C57.583 28.9592 57.5911 29.8411 57.5997 30.723C57.6036 31.1326 57.6075 31.5423 57.6111 31.9519C57.6146 32.3481 57.6183 32.7444 57.6223 33.1406C57.6238 33.2908 57.6251 33.441 57.6264 33.5913C57.533 35.8137 57.533 35.8137 58.441 37.7454C58.8088 37.9891 59.1291 37.9927 59.5548 37.9844C59.6436 37.9847 59.6436 37.9847 59.7342 37.9851C60.0991 37.9819 60.4041 37.9343 60.7498 37.8175C60.7949 38.043 60.7949 38.043 60.7498 38.3226C60.0039 38.9956 58.9625 39.1302 58.0081 39.1343C57.9237 39.1358 57.8394 39.1373 57.7525 39.1388C56.6756 39.1436 55.6845 38.8697 54.8741 38.1287C54.3077 37.5061 54.1005 36.7549 53.9677 35.9416C53.9552 35.8683 53.9426 35.795 53.9297 35.7195C53.8889 35.3811 53.886 35.0508 53.8874 34.7103C53.8873 34.6392 53.8873 34.568 53.8873 34.4947C53.8874 34.2609 53.8879 34.027 53.8885 33.7932C53.8886 33.6305 53.8887 33.4679 53.8888 33.3052C53.8891 32.8781 53.8898 32.451 53.8906 32.0239C53.8913 31.5876 53.8917 31.1514 53.892 30.7151C53.8928 29.8599 53.8941 29.0047 53.8955 28.1494C53.3003 28.1494 52.7051 28.1494 52.0918 28.1494C52.0918 27.959 52.0918 27.7685 52.0918 27.5722C52.151 27.5716 52.2103 27.5709 52.2713 27.5702C52.4949 27.567 52.7185 27.5625 52.9421 27.5573C53.085 27.5543 53.2278 27.5527 53.3706 27.5511C54.4291 27.5243 55.199 27.1974 55.9654 26.4719C56.6688 25.7307 56.9183 24.8498 57.2145 23.8926Z" fill="#282262"/>
<path fill-rule="evenodd" clip-rule="evenodd" d="M33.6956 27.4099L33.5447 27.4101C31.9613 27.4117 30.2989 27.6291 29.1712 28.8669C28.6865 29.5058 28.4648 30.0858 28.5709 30.8914C28.7162 31.4131 29.0845 31.8716 29.5494 32.154C30.0192 32.3587 30.5841 32.3347 31.0739 32.2146C31.536 32.034 31.8053 31.7354 32.0524 31.3144C32.3301 30.7598 32.2979 30.261 32.1223 29.6758C32.1028 29.6146 32.0816 29.5516 32.0598 29.4873C31.9213 29.0781 31.7649 28.6157 31.9619 28.2218C32.2968 28.0431 32.5586 27.9802 32.9368 27.9828L33.0983 27.9873L33.17 27.9877C33.4853 27.9889 33.7671 27.99 34.0498 28.1632C34.3542 28.4308 34.5134 28.7295 34.587 29.1274L34.6103 29.2767C34.7172 29.9218 34.7418 30.5645 34.7508 31.2173C34.7524 31.3419 34.7544 31.4665 34.7568 31.5911C34.7643 31.9591 34.7707 32.3271 34.7758 32.6951C34.6318 32.6919 34.5339 32.6897 34.4362 32.6929C34.2279 32.6997 34.0204 32.7309 33.3709 32.8286L33.211 32.853C32.1124 33.02 31.0297 33.1951 30.0094 33.6556C29.1174 34.0881 28.4856 34.6856 28.1425 35.6307C27.9517 36.3785 27.9682 37.2117 28.3544 37.8899C28.7486 38.5176 29.4002 38.8688 30.1004 39.0533C31.7822 39.4131 33.361 38.9716 34.7668 38.0624L34.9201 37.9621C35.1645 38.2833 35.4117 38.5507 35.7653 38.7509C36.7076 39.1907 38.0024 39.1974 38.9898 38.8938L39.1769 38.8279C39.2143 38.8161 39.2518 38.8047 39.2892 38.7933C39.5017 38.7286 39.7134 38.6642 39.8984 38.5393C39.9282 38.4376 39.942 38.3903 39.9509 38.3422C39.9587 38.3004 39.9628 38.2579 39.9706 38.1785L39.7863 38.1811L39.5467 38.183L39.4772 38.184C39.2258 38.1881 39.0582 38.1908 38.8507 38.0116C38.661 37.589 38.5645 37.3739 38.5193 37.1485C38.4724 36.9149 38.4807 36.6703 38.4976 36.1721C38.4979 35.9757 38.4982 35.7794 38.4973 35.583C38.4944 35.16 38.4927 34.737 38.4919 34.314C38.4914 34.0469 38.491 33.7797 38.4902 33.5126C38.4895 33.2824 38.4885 33.0523 38.4871 32.8222C38.4857 32.6215 38.4847 32.4209 38.485 32.2203C38.4874 30.9085 38.4476 29.4908 37.4944 28.4758C36.4483 27.5295 35.0432 27.4112 33.6956 27.4099ZM34.8057 34.8109C34.7995 34.2739 34.7892 33.737 34.7758 33.2002C34.0203 33.1927 33.2632 33.3069 32.6113 33.7052C32.0122 34.1144 31.6112 34.6532 31.4569 35.3647C31.392 36.0763 31.4953 36.7081 31.8898 37.3127C32.2682 37.7348 32.6751 38.002 33.2443 38.0517C33.8308 38.0658 34.208 37.9483 34.6502 37.5533C34.7187 37.4614 34.7627 37.4024 34.7909 37.3367C34.8415 37.2189 34.8414 37.0793 34.8412 36.6896L34.8321 36.4201C34.8296 36.133 34.8269 35.846 34.8193 35.5589C34.8128 35.3095 34.8087 35.0603 34.8057 34.8109Z" fill="#282261"/>
<path fill-rule="evenodd" clip-rule="evenodd" d="M93.9039 27.4043L93.6228 27.4055C92.2577 27.4099 90.7712 27.5048 89.6858 28.4404L89.5373 28.5825C89.3583 28.7524 89.1905 28.9247 89.0288 29.1112C88.6527 29.6257 88.5281 30.1906 88.5993 30.8191C88.7068 31.3564 89.0564 31.7711 89.4967 32.0818C90.0076 32.3646 90.6052 32.3612 91.1626 32.2139C91.6363 32.0057 91.9334 31.6091 92.1617 31.1573C92.395 30.5708 92.2917 30.0909 92.0986 29.5114C92.0643 29.4167 92.0305 29.3218 91.9971 29.2268C91.8943 28.9059 91.835 28.5324 91.9904 28.2217C92.3105 28.0117 92.5703 27.9804 92.9416 27.9827L93.1267 27.9872L93.1348 27.9873C93.6152 27.9902 93.8826 27.9917 94.2662 28.3212C94.5353 28.9983 94.6732 29.3453 94.7387 29.7055C94.8075 30.0841 94.7965 30.4772 94.7738 31.2836C94.776 31.4026 94.7786 31.5217 94.7813 31.6408C94.7897 31.9922 94.7974 32.3436 94.8042 32.695C94.2437 32.7285 93.6887 32.7725 93.1335 32.8578L92.9148 32.8934C91.7565 33.0819 90.6436 33.3139 89.6145 33.8971C88.9213 34.3154 88.3503 34.9399 88.1394 35.7434C87.997 36.5828 88.0545 37.3547 88.5046 38.0882L88.6715 38.2506C89.1351 38.7088 89.6736 38.9505 90.3032 39.0888C91.9172 39.3476 93.5042 38.963 94.8369 38.0415L94.9485 37.962C95.236 38.3398 95.5248 38.626 95.9586 38.8278C97.1518 39.2898 98.659 39.1109 99.8158 38.6299C99.87 38.5857 99.9039 38.558 99.9271 38.5231C99.9659 38.465 99.9749 38.3869 99.999 38.1784L99.9174 38.1833C99.5694 38.2042 99.2396 38.2241 98.9123 38.0837C98.7132 37.6105 98.6125 37.3712 98.5636 37.1218C98.5137 36.8668 98.5178 36.6013 98.526 36.0641C98.5264 35.8624 98.5267 35.6608 98.5257 35.4591C98.5229 35.0251 98.5212 34.5912 98.5203 34.1573C98.5195 33.6461 98.5186 33.1349 98.5155 32.6236C98.5148 32.5103 98.5142 32.397 98.5138 32.2837C98.5135 32.1909 98.5133 32.0981 98.5135 32.0054C98.5157 30.7584 98.4504 29.4504 97.5409 28.494C96.5323 27.5671 95.2177 27.4142 93.9039 27.4043ZM94.8342 34.8108C94.8279 34.2738 94.8177 33.7369 94.8042 33.2001C93.7841 33.1938 92.7399 33.4015 92.0377 34.1989L91.9182 34.3545C91.6105 34.7467 91.5356 35.1212 91.5193 35.6098L91.5169 35.802C91.5057 36.4368 91.6556 36.9264 92.0355 37.4389C92.3616 37.7886 92.7504 38.0042 93.2268 38.0612C93.8292 38.073 94.225 37.9584 94.6786 37.5532C94.7472 37.4613 94.7911 37.4024 94.8193 37.3366C94.8699 37.2188 94.8698 37.0793 94.8696 36.6895L94.8606 36.4201C94.8581 36.1329 94.8553 35.8459 94.8478 35.5588C94.8412 35.3095 94.8371 35.0602 94.8342 34.8108Z" fill="#282261"/>
<path d="M36.5986 5.38174C36.6748 5.40253 36.751 5.42332 36.8295 5.44474C36.8995 5.46552 36.9695 5.48631 37.0417 5.50772C37.1042 5.52599 37.1667 5.54426 37.2311 5.56308C37.3742 5.63877 37.3742 5.63877 37.4362 5.76757C37.4487 5.96426 37.4146 6.11589 37.3638 6.30644C37.3447 6.38005 37.3256 6.45367 37.3059 6.52951C37.2853 6.6061 37.2647 6.68269 37.2435 6.76161C36.9926 7.70877 36.8399 8.63104 36.7564 9.60702C36.7518 9.65998 36.7471 9.71294 36.7424 9.76751C36.6527 10.7954 36.6041 11.8221 36.5806 12.8538C36.3346 12.7763 36.0956 12.6898 35.8582 12.5894C34.0217 11.815 32.0679 11.2833 30.0834 11.076C29.8706 11.05 29.8706 11.05 29.6542 10.9779C29.5146 9.07031 30.2344 7.19472 31.025 5.49447C31.0478 5.44341 31.0706 5.39235 31.094 5.33974C31.1623 5.20136 31.1623 5.20136 31.3136 4.98942C32.9493 4.58138 35.0138 4.94219 36.5986 5.38174Z" fill="#EF5A2A"/>
<path d="M56.7099 0.0109866C56.8554 0.108942 56.8554 0.108942 56.9956 0.245756C57.0735 0.320463 57.0735 0.320463 57.1529 0.396679C57.2061 0.44946 57.2593 0.502241 57.3141 0.556621C57.3668 0.607449 57.4194 0.658277 57.4736 0.710645C57.629 0.861148 57.7828 1.0131 57.9364 1.16539C57.9819 1.20964 58.0273 1.25389 58.0742 1.29949C58.3466 1.56662 58.5953 1.84257 58.8293 2.14392C58.863 2.18732 58.8967 2.23072 58.9315 2.27543C59.5483 3.08011 60.0261 3.93111 60.4617 4.84504C60.4204 4.86854 60.3791 4.89204 60.3366 4.91626C59.0101 5.67536 57.7857 6.5054 56.6377 7.51459C56.5865 7.55868 56.5352 7.60276 56.4824 7.64818C56.1882 7.90205 55.9009 8.16344 55.6141 8.42549C55.578 8.45836 55.542 8.49124 55.5048 8.52512C55.3304 8.68521 55.1617 8.8475 54.9971 9.01791C54.834 9.17404 54.834 9.17404 54.6897 9.17404C54.6701 9.12809 54.6506 9.08214 54.6305 9.0348C53.7748 7.02948 52.8058 5.14169 51.4716 3.41106C51.3612 3.26719 51.2549 3.12003 51.1543 2.96914C52.3671 1.81223 54.9347 -0.164886 56.7099 0.0109866Z" fill="#EF5A2A"/>
<path d="M44.1452 0.164635C44.244 0.198378 44.3426 0.232891 44.4409 0.268069C44.4938 0.286902 44.5467 0.305736 44.6013 0.32514C45.129 0.51902 45.6264 0.762842 46.1224 1.02628C46.235 1.08582 46.3485 1.14352 46.4622 1.20095C47.3322 1.6512 48.1009 2.26709 48.8465 2.89704C48.8046 3.17462 48.6781 3.31607 48.4948 3.52384C47.1076 5.18279 46.1954 7.21986 45.3112 9.17409C45.0034 8.91526 44.7046 8.64892 44.4093 8.37593C42.9464 7.0319 41.4069 5.79187 39.6113 4.91724C39.6536 4.55374 39.8188 4.27081 39.9946 3.95674C40.0265 3.89972 40.0584 3.84269 40.0913 3.78394C40.6309 2.8431 41.3083 2.01248 42.0644 1.23759C42.1068 1.19416 42.1491 1.15074 42.1927 1.106C42.3283 0.967492 42.4645 0.829558 42.601 0.69195C42.6437 0.648923 42.6864 0.605896 42.7304 0.561566C42.8437 0.448672 42.9587 0.337855 43.0745 0.227484C43.1215 0.180702 43.1685 0.13392 43.2169 0.0857205C43.5159 -0.0669721 43.841 0.0704683 44.1452 0.164635Z" fill="#EF5A2A"/>
<path d="M68.7596 4.9893C68.8692 5.12169 68.8692 5.12169 68.947 5.29481C68.991 5.38981 68.991 5.38981 69.0359 5.48672C69.0799 5.58871 69.0799 5.58871 69.1249 5.69276C69.1561 5.76192 69.1873 5.83108 69.2194 5.90233C69.3088 6.1022 69.3955 6.30296 69.4811 6.50445C69.5123 6.57733 69.5123 6.57733 69.5441 6.65168C70.0678 7.89233 70.4267 9.31599 70.4205 10.6711C70.4201 10.7576 70.4201 10.7576 70.4198 10.8459C70.4196 10.8894 70.4193 10.9329 70.419 10.9778C70.36 10.9864 70.3009 10.9951 70.2401 11.004C67.8942 11.3527 65.6948 11.9639 63.4926 12.8537C63.4916 12.7983 63.4905 12.7429 63.4895 12.6859C63.4534 10.9712 63.3526 9.26744 62.9876 7.5867C62.9759 7.53249 62.9643 7.47828 62.9523 7.42243C62.8288 6.84947 62.6986 6.27897 62.5547 5.7108C63.0401 5.50187 63.5178 5.34608 64.0338 5.23281C64.1033 5.21754 64.1728 5.20227 64.2444 5.18653C65.5987 4.89866 67.4088 4.61956 68.7596 4.9893Z" fill="#EF5A2A"/>
<path d="M27.5254 12.6282C27.6125 12.6281 27.6995 12.6279 27.7892 12.6277C27.9944 12.6373 27.9944 12.6373 28.0665 12.7094C28.0898 12.8442 28.109 12.9796 28.1266 13.1153C28.1378 13.1999 28.1491 13.2845 28.1607 13.3717C28.1728 13.4627 28.1849 13.5536 28.1973 13.6474C28.4341 15.3526 28.9035 16.945 29.5254 18.5497C29.6441 18.8623 29.7567 19.1771 29.8703 19.4915C29.8004 19.494 29.7306 19.4965 29.6587 19.499C27.401 19.5829 25.1883 19.7753 23.007 20.3955C22.8717 20.4295 22.8717 20.4295 22.7274 20.4295C22.1042 18.6518 21.8707 16.9768 21.9338 15.0904C21.9343 15.0193 21.9348 14.9483 21.9354 14.8751C21.9552 14.3469 21.9552 14.3469 22.1888 14.1158C22.2728 14.0773 22.3568 14.0388 22.4433 13.9991C22.4905 13.977 22.5376 13.9549 22.5862 13.9321C22.7519 13.8567 22.9194 13.7878 23.0882 13.7195C23.153 13.6925 23.2178 13.6656 23.2846 13.6378C24.6392 13.0802 26.0477 12.625 27.5254 12.6282Z" fill="#EF5B2A"/>
<path d="M72.0069 12.6374C74.0902 12.5171 76.1669 13.2918 77.9953 14.2247C78.1428 14.3722 78.081 14.6791 78.0821 14.8819C78.0826 14.9418 78.0831 15.0017 78.0837 15.0634C78.0849 15.2588 78.0854 15.4542 78.0855 15.6496C78.0856 15.7157 78.0857 15.7818 78.0857 15.8498C78.0845 17.4574 77.8795 18.909 77.346 20.4296C77.0353 20.384 76.7359 20.3149 76.4321 20.2375C74.379 19.7211 72.3088 19.6087 70.2031 19.4916C70.4251 18.818 70.4251 18.818 70.5492 18.495C70.927 17.4951 71.2305 16.4848 71.5018 15.4512C71.5247 15.3666 71.5476 15.2819 71.5712 15.1947C71.7822 14.3574 71.8818 13.4908 72.0069 12.6374Z" fill="#F05A29"/>
<path d="M49.9288 4.26782C51.3324 4.80498 52.3952 7.84749 52.9597 9.10748C53.0329 9.27343 53.1043 9.44011 53.1755 9.60693C53.2035 9.66948 53.2316 9.73204 53.2604 9.7965C53.2876 9.8594 53.3147 9.92231 53.3427 9.98712C53.3676 10.0438 53.3926 10.1006 53.4184 10.159C53.4738 10.3641 53.4529 10.4871 53.392 10.6892C53.2708 10.865 53.2708 10.865 53.1124 11.0499C53.0534 11.12 52.9945 11.19 52.9337 11.2622C52.8092 11.4069 52.6831 11.5497 52.5561 11.6922C51.5336 12.8494 50.753 14.214 50.0731 15.5954C49.9108 15.4458 49.8094 15.3092 49.7132 15.1112C49.6865 15.0578 49.6599 15.0045 49.6325 14.9495C49.6038 14.8918 49.5751 14.8341 49.5455 14.7747C48.9101 13.5353 48.1102 12.2276 47.0983 11.2543C47.0414 11.198 47.0414 11.198 46.9834 11.1407C46.8785 11.0387 46.7705 10.9399 46.6623 10.8414C46.5192 10.5836 46.5292 10.5468 46.6062 10.276C46.6531 10.1483 46.7025 10.0214 46.7542 9.89553C46.7775 9.83568 46.8009 9.77583 46.8249 9.71417C46.8989 9.52961 46.9768 9.34725 47.0563 9.16501C47.0849 9.09918 47.1134 9.03336 47.1429 8.96554C47.8814 7.27984 48.8095 5.72907 49.9288 4.26782Z" fill="#FAAE42"/>
<path d="M61.1113 6.43237C61.4373 7.65192 61.6559 8.85381 61.7607 10.112C61.7676 10.1952 61.7746 10.2785 61.7818 10.3642C61.8343 11.0613 61.8414 11.7537 61.8373 12.4524C61.837 12.5622 61.8367 12.6719 61.8364 12.7817C61.8356 13.0462 61.8343 13.3107 61.8328 13.5752C61.7802 13.6023 61.7802 13.6023 61.7265 13.63C60.0601 14.4908 58.5005 15.425 57.076 16.6534C56.795 16.8941 56.795 16.8941 56.638 16.8941C56.6304 16.8277 56.6228 16.7612 56.615 16.6927C56.5859 16.4406 56.5564 16.1884 56.5266 15.9363C56.5139 15.8283 56.5014 15.7202 56.4891 15.6121C56.3742 14.609 56.208 13.6302 55.921 12.6598C55.9025 12.5955 55.884 12.5312 55.865 12.4649C55.7423 12.0432 55.606 11.6303 55.4453 11.2213C55.3988 10.9855 55.4354 10.8982 55.5558 10.6892C55.7053 10.5134 55.8678 10.3534 56.0338 10.1932C56.1025 10.1257 56.1025 10.1257 56.1727 10.0569C56.4434 9.79272 56.7179 9.53467 57.007 9.29047C57.1633 9.15679 57.3126 9.01652 57.4632 8.87646C58.3003 8.12282 59.2244 7.46952 60.1734 6.86527C60.246 6.81886 60.3187 6.77245 60.3935 6.72464C60.8643 6.43237 60.8643 6.43237 61.1113 6.43237Z" fill="#FAAE42"/>
<path d="M70.3464 12.6372C70.3118 14.6611 69.5671 16.6794 68.8226 18.5387C68.7639 18.6858 68.7069 18.8334 68.6503 18.9814C68.6193 19.0604 68.5882 19.1395 68.5562 19.2209C68.5304 19.2868 68.5047 19.3526 68.4781 19.4205C68.3984 19.5636 68.3984 19.5636 68.1819 19.6358C68.0498 19.6473 67.9173 19.6555 67.7848 19.6617C66.1087 19.7529 64.5284 20.0355 62.9242 20.5271C62.7054 20.5936 62.4856 20.6559 62.2656 20.718C62.3699 20.3682 62.4747 20.0187 62.5852 19.6707C63.0895 18.043 63.3084 16.3537 63.42 14.6574C65.382 13.665 68.1009 12.5217 70.3464 12.6372Z" fill="#FAAE42"/>
<path d="M29.7267 12.7094C30.2007 12.6954 30.6384 12.7238 31.1021 12.8221C31.163 12.8347 31.2239 12.8474 31.2867 12.8604C33.1475 13.2603 34.9169 13.8865 36.6531 14.6574C36.6585 14.7287 36.6585 14.7287 36.6641 14.8015C36.7293 15.6486 36.7947 16.4896 36.9417 17.327C36.9592 17.4376 36.9766 17.5483 36.9938 17.659C37.0125 17.7768 37.0312 17.8946 37.0499 18.0124C37.0627 18.0954 37.0627 18.0954 37.0758 18.1801C37.1228 18.4684 37.1872 18.7165 37.3024 18.9864C37.3391 19.1257 37.3736 19.2655 37.4062 19.4058C37.4701 19.6709 37.5399 19.9235 37.6406 20.1769C37.7353 20.4294 37.7353 20.4294 37.7353 20.718C37.353 20.616 36.9717 20.5109 36.5922 20.3984C35.1771 19.9809 33.7637 19.7252 32.2876 19.6604C32.067 19.6501 31.8857 19.6339 31.6747 19.5636C31.5373 19.3471 31.446 19.1048 31.3456 18.8692C31.3143 18.7966 31.283 18.7239 31.2508 18.6491C30.9901 18.0261 30.7716 17.3924 30.5654 16.7498C30.5507 16.7038 30.5359 16.6579 30.5207 16.6106C30.2374 15.7236 29.9618 14.8258 29.8169 13.9044C29.8079 13.8521 29.7988 13.7999 29.7895 13.7461C29.7325 13.3965 29.7187 13.0635 29.7267 12.7094Z" fill="#FAAE42"/>
<path d="M38.962 6.43237C39.324 6.53595 39.6125 6.69227 39.927 6.89233C39.977 6.92391 40.027 6.95549 40.0785 6.98803C41.2689 7.75224 42.3599 8.66623 43.386 9.63745C43.4739 9.71981 43.5626 9.80132 43.6517 9.88229C43.8052 10.0219 43.9563 10.1637 44.1072 10.3059C44.1561 10.3496 44.205 10.3933 44.2553 10.4383C44.5784 10.7491 44.5784 10.7491 44.6091 10.9778C44.5934 11.13 44.5625 11.2645 44.5176 11.4107C44.4934 11.4907 44.4692 11.5707 44.4443 11.6531C44.4149 11.7338 44.3855 11.8146 44.3552 11.8977C43.8625 13.3112 43.5978 14.7745 43.4883 16.2645C43.4833 16.3257 43.4784 16.3869 43.4734 16.45C43.4695 16.5044 43.4656 16.5589 43.4615 16.615C43.4353 16.7498 43.4353 16.7498 43.291 16.8941C43.2446 16.8556 43.1982 16.8171 43.1504 16.7775C41.6634 15.5514 40.1181 14.5671 38.3848 13.7195C38.3372 13.6957 38.2896 13.6719 38.2405 13.6474C38.2369 13.2151 38.2343 12.7828 38.2326 12.3505C38.2319 12.2039 38.2309 12.0573 38.2296 11.9108C38.2225 11.0543 38.247 10.2373 38.3848 9.39053C38.4018 9.25571 38.4181 9.1208 38.4336 8.98581C38.5402 8.11071 38.7148 7.27845 38.962 6.43237Z" fill="#F9AE42"/>
<path d="M22.7279 45.5376C23.0788 45.5869 23.4167 45.6722 23.7596 45.7591C25.4213 46.1773 27.0709 46.3242 28.7795 46.3718C28.8861 46.375 28.9927 46.3781 29.0994 46.3813C29.3565 46.3889 29.6136 46.3962 29.8708 46.4034C29.821 46.6219 29.7515 46.8245 29.6698 47.033C28.9175 48.9778 28.2214 51.0154 28.0833 53.1127C28.067 53.2577 28.067 53.2577 27.9948 53.3298C25.9211 53.5055 23.8898 52.6715 22.0785 51.7425C21.7776 51.4416 21.9173 50.3978 21.9162 49.9884C21.9176 48.5428 22.0378 46.8409 22.7279 45.5376Z" fill="#049347"/>
<path d="M77.346 45.5376C77.5623 46.1306 77.7402 46.7188 77.8691 47.3368C77.8808 47.3931 77.8926 47.4493 77.9047 47.5073C78.0258 48.1103 78.0781 48.6887 78.0745 49.3029C78.0744 49.371 78.0743 49.439 78.0742 49.5091C78.0738 49.7245 78.0729 49.9398 78.072 50.1552C78.0716 50.302 78.0713 50.4489 78.071 50.5957C78.0702 50.9539 78.069 51.3121 78.0675 51.6704C77.8866 51.762 77.7055 51.8534 77.5244 51.9446C77.4739 51.9702 77.4234 51.9958 77.3714 52.0222C75.7271 52.8488 73.863 53.4331 72.0069 53.402C72.0026 53.3615 71.9983 53.3211 71.9939 53.2794C71.7548 51.099 71.181 49.03 70.3497 47.0015C70.2636 46.7899 70.2031 46.6343 70.2031 46.4034C70.2992 46.4024 70.2992 46.4024 70.3972 46.4014C72.7248 46.3709 75.116 45.5376 77.346 45.5376Z" fill="#029346"/>
<path d="M54.6897 56.793C54.9696 56.9225 55.142 57.0888 55.357 57.3115C55.6754 57.6365 56.0019 57.9422 56.3491 58.236C56.4137 58.2926 56.4784 58.3493 56.545 58.4076C57.6055 59.3314 58.7408 60.1197 59.9579 60.8228C60.127 60.9206 60.2946 61.0208 60.4617 61.122C59.6519 62.8209 58.5694 64.2178 57.2149 65.5231C57.1729 65.5673 57.1308 65.6115 57.0875 65.657C57.0256 65.718 57.0256 65.718 56.9624 65.7802C56.9274 65.816 56.8924 65.8518 56.8564 65.8887C56.5441 66.0322 56.1851 65.8998 55.872 65.805C54.1142 65.1368 52.5436 64.2854 51.1543 62.9979C51.1808 62.9627 51.2073 62.9276 51.2346 62.8914C51.9764 61.9053 52.6527 60.906 53.2466 59.8233C53.28 59.7626 53.3135 59.7019 53.3479 59.6394C53.8539 58.7141 54.2907 57.7691 54.6897 56.793Z" fill="#039347"/>
<path d="M45.239 56.793C45.4022 56.9421 45.4969 57.0708 45.5826 57.2741C45.605 57.326 45.6273 57.378 45.6504 57.4315C45.6738 57.4871 45.6973 57.5428 45.7215 57.6001C45.9742 58.1828 46.2444 58.7526 46.5353 59.3171C46.6119 59.4665 46.6873 59.6166 46.7626 59.7666C47.2811 60.7862 47.9214 61.6987 48.6374 62.5886C48.7593 62.7602 48.8182 62.8648 48.8465 63.07C47.5551 64.2312 46.1116 65.0044 44.5175 65.6674C44.431 65.7053 44.3445 65.7431 44.2554 65.7821C43.6984 66.0154 43.6984 66.0154 43.3631 65.956C43.1269 65.8094 42.9437 65.6214 42.7525 65.4209C42.6289 65.2935 42.501 65.1715 42.3722 65.0494C41.3237 64.0455 39.9166 62.592 39.6113 61.122C39.6673 61.0878 39.7233 61.0537 39.781 61.0185C40.0376 60.8614 40.2936 60.7033 40.5493 60.5448C40.5905 60.5193 40.6318 60.4939 40.6742 60.4677C42.0126 59.6386 43.2133 58.6477 44.3732 57.5866C44.4112 57.5519 44.4491 57.5172 44.4883 57.4815C44.7388 57.2523 44.989 57.0228 45.239 56.793Z" fill="#039347"/>
<path d="M36.5815 53.1855C36.5822 53.2383 36.5829 53.291 36.5836 53.3453C36.6157 55.3762 36.8035 57.37 37.262 59.3524C37.3296 59.6525 37.3886 59.9543 37.4473 60.2563C35.7124 61.0094 33.9058 61.1114 32.0361 61.0499C31.966 61.0497 31.896 61.0496 31.8238 61.0494C31.6423 61.043 31.4881 61.0314 31.3146 60.9778C31.1628 60.8021 31.1031 60.7067 31.0215 60.4998C30.9991 60.4493 30.9767 60.3987 30.9536 60.3467C30.8783 60.1735 30.8078 59.9986 30.7374 59.8234C30.6808 59.6891 30.6241 59.5548 30.5674 59.4206C29.973 57.9843 29.617 56.5545 29.6551 54.9893C29.7122 54.9808 29.7692 54.9723 29.828 54.9636C31.1357 54.7662 32.4395 54.5451 33.6955 54.1235C33.7852 54.0934 33.8749 54.0634 33.9673 54.0324C34.2814 53.9269 34.595 53.8203 34.9086 53.7131C34.9605 53.6954 35.0125 53.6776 35.0661 53.6593C35.2156 53.6081 35.3649 53.5566 35.5142 53.5049C35.6016 53.4747 35.689 53.4445 35.7791 53.4134C35.9967 53.3383 35.9967 53.3383 36.1612 53.2468C36.2929 53.1855 36.2929 53.1855 36.5815 53.1855Z" fill="#039347"/>
<path d="M63.4926 53.1855C63.7704 53.2253 64.0136 53.2812 64.2725 53.389C64.3698 53.4288 64.3698 53.4288 64.4692 53.4693C64.5383 53.4977 64.6074 53.5261 64.6786 53.5553C66.5382 54.2978 68.4389 54.7199 70.419 54.9893C70.4285 55.459 70.3973 55.9047 70.3289 56.3692C70.3191 56.4356 70.3093 56.5021 70.2992 56.5705C70.094 57.9001 69.6277 59.1497 69.0798 60.3735C69.0544 60.433 69.029 60.4924 69.0029 60.5537C68.9776 60.6082 68.9523 60.6628 68.9262 60.719C68.9044 60.7674 68.8827 60.8157 68.8603 60.8655C68.7036 61.0401 68.5563 61.0299 68.3267 61.0499C68.1412 61.0589 67.9576 61.0651 67.772 61.0671C67.7193 61.0678 67.6665 61.0685 67.6121 61.0692C67.4415 61.071 67.2708 61.0719 67.1001 61.0725C67.0419 61.0726 66.9837 61.0728 66.9237 61.073C65.9689 61.0734 65.0708 60.9952 64.142 60.7613C64.0619 60.7422 64.0619 60.7422 63.9801 60.7228C63.4859 60.6051 63.0191 60.4635 62.5547 60.2563C62.5713 60.1886 62.588 60.121 62.6051 60.0514C63.1616 57.759 63.3733 55.5333 63.4926 53.1855Z" fill="#029346"/>
<path d="M50.0011 50.3716C50.2714 50.6789 50.4412 51.0101 50.6234 51.3727C50.9518 52.0096 51.3154 52.6034 51.7327 53.1854C51.7671 53.2335 51.8015 53.2816 51.837 53.3312C52.2546 53.9099 52.6878 54.4608 53.1785 54.9793C53.32 55.1335 53.32 55.1335 53.4643 55.3499C53.4387 55.643 53.36 55.893 53.2475 56.1633C53.2182 56.2341 53.1889 56.3049 53.1586 56.3779C53.1113 56.4896 53.1113 56.4896 53.0629 56.6035C53.0303 56.6809 52.9976 56.7583 52.964 56.8381C52.3916 58.181 51.7055 59.4651 50.8804 60.671C50.8493 60.7165 50.8181 60.7621 50.786 60.809C50.5668 61.1225 50.3267 61.4128 50.0732 61.6991C49.835 61.6197 49.8008 61.5789 49.6584 61.384C49.6208 61.3327 49.5832 61.2814 49.5445 61.2286C49.5047 61.1725 49.4649 61.1165 49.4239 61.0588C49.3824 61.0009 49.341 60.943 49.2983 60.8833C48.8636 60.2656 48.4889 59.6186 48.1252 58.9574C48.0981 58.909 48.0711 58.8605 48.0432 58.8106C47.5434 57.9146 47.1457 56.9808 46.7574 56.032C46.6869 55.8562 46.6869 55.8562 46.5956 55.705C46.5379 55.5664 46.5379 55.5664 46.5432 55.4277C46.6407 55.2089 46.7902 55.0701 46.9572 54.899C47.4429 54.3868 47.8598 53.8314 48.2695 53.2576C48.3006 53.2142 48.3318 53.1708 48.3639 53.1261C48.9017 52.3694 49.3388 51.561 49.7724 50.7411C49.8568 50.588 49.8568 50.588 50.0011 50.3716Z" fill="#8BC541"/>
<path d="M56.6387 49.0007C56.9689 49.2397 57.2825 49.4908 57.5901 49.7583C58.5388 50.5643 59.6247 51.2104 60.7208 51.7937C60.9485 51.915 61.1757 52.0374 61.4028 52.1598C61.4843 52.2037 61.5659 52.2476 61.6498 52.2929C61.7104 52.3255 61.771 52.3582 61.8335 52.3918C61.8631 54.8349 61.713 57.1588 61.112 59.5346C60.8406 59.4938 60.6569 59.4211 60.4282 59.2706C60.3384 59.2119 60.3384 59.2119 60.2467 59.152C60.1841 59.1101 60.1214 59.0682 60.0568 59.0251C59.9596 58.9609 59.9596 58.9609 59.8605 58.8953C58.7815 58.1786 57.8101 57.3771 56.8551 56.5043C56.782 56.438 56.7089 56.3717 56.6358 56.3054C56.4191 56.1084 56.2041 55.9098 55.9893 55.7107C55.935 55.6612 55.8807 55.6117 55.8247 55.5608C55.7793 55.518 55.7339 55.4752 55.6872 55.4311C55.649 55.3956 55.6107 55.36 55.5713 55.3234C55.4541 55.1648 55.4361 55.0403 55.4121 54.8449C55.4512 54.6736 55.4512 54.6736 55.5186 54.4943C55.5431 54.4266 55.5675 54.3589 55.5927 54.2892C55.6194 54.2166 55.6461 54.144 55.6737 54.0693C56.2378 52.4591 56.5382 50.7047 56.6387 49.0007Z" fill="#8BC541"/>
<path d="M37.7356 45.249C37.6766 45.5769 37.5871 45.8938 37.4966 46.214C37.464 46.3313 37.4314 46.4485 37.3988 46.5658C37.3413 46.7721 37.2824 46.9779 37.2224 47.1835C36.8394 48.5323 36.745 49.9158 36.6534 51.3096C34.5558 52.2668 32.0817 53.3298 29.727 53.3298C29.6773 51.3759 30.4239 49.3569 31.1517 47.5728C31.247 47.3391 31.247 47.3391 31.3171 47.0813C31.4086 46.81 31.4884 46.6214 31.675 46.4034C32.0282 46.2725 32.363 46.2477 32.7373 46.2341C33.0392 46.223 33.34 46.1969 33.6411 46.1732C33.7314 46.1667 33.7314 46.1667 33.8235 46.1601C35.0349 46.0692 36.222 45.7397 37.3616 45.3285C37.5913 45.249 37.5913 45.249 37.7356 45.249Z" fill="#8BC540"/>
<path d="M62.3379 45.3213C62.6844 45.362 62.9879 45.4358 63.3164 45.5513C64.8408 46.0487 66.4117 46.2502 68.0064 46.3168C68.182 46.3314 68.182 46.3314 68.3985 46.4035C68.4966 46.5953 68.5801 46.7814 68.66 46.9807C68.6847 47.0408 68.7094 47.1009 68.7348 47.1628C69.316 48.5991 69.8358 50.0564 70.1481 51.5758C70.1772 51.7101 70.1772 51.7101 70.2068 51.8471C70.3108 52.3484 70.3759 52.8177 70.3465 53.3299C69.4618 53.2843 68.6237 53.1173 67.7672 52.9016C67.6912 52.8826 67.6912 52.8826 67.6137 52.8633C67.1124 52.7375 66.6352 52.6011 66.1618 52.392C66.0092 52.3432 65.8559 52.2965 65.7019 52.2522C65.3741 52.1535 65.0671 52.0428 64.7577 51.8974C64.4598 51.7631 64.1548 51.6462 63.8504 51.5275C63.4999 51.3895 63.4999 51.3895 63.4201 51.3097C63.408 51.2121 63.4002 51.114 63.3942 51.0158C63.2775 49.3304 63.0115 47.6802 62.5289 46.0601C62.4582 45.8154 62.3979 45.5687 62.3379 45.3213Z" fill="#8BC540"/>
<path d="M43.2904 49.073C43.4909 49.2735 43.4722 49.4235 43.5017 49.704C43.5129 49.805 43.524 49.9059 43.5352 50.0068C43.5436 50.0862 43.5436 50.0862 43.5523 50.1672C43.7072 51.6032 43.9612 52.9058 44.4576 54.269C44.4859 54.3489 44.5142 54.4288 44.5434 54.511C44.5695 54.5824 44.5956 54.6538 44.6226 54.7273C44.6612 54.9172 44.6612 54.9172 44.6173 55.0648C44.4874 55.2472 44.3417 55.3997 44.1835 55.5583C44.1503 55.5916 44.1172 55.6249 44.0831 55.6592C44.0127 55.7296 43.9422 55.7999 43.8714 55.87C43.7659 55.9748 43.6612 56.0802 43.5565 56.1858C43.1069 56.6361 42.6332 57.0451 42.136 57.4424C42.0065 57.5549 41.8772 57.6676 41.7481 57.7806C41.1253 58.3021 40.4366 58.7342 39.755 59.174C39.6999 59.2104 39.6448 59.2468 39.588 59.2843C39.5371 59.3174 39.4862 59.3505 39.4337 59.3845C39.3893 59.4137 39.3449 59.4428 39.2992 59.4728C39.1778 59.5348 39.1778 59.5348 38.9613 59.5348C38.7354 58.7662 38.5605 58 38.4383 57.2079C38.4206 57.0955 38.4206 57.0955 38.4027 56.9808C38.2412 55.886 38.2301 54.7988 38.2353 53.6951C38.2357 53.561 38.236 53.4269 38.2363 53.2928C38.2371 52.9684 38.2383 52.6441 38.2398 52.3198C38.2851 52.2981 38.3304 52.2764 38.377 52.254C39.9989 51.4723 41.4448 50.5803 42.8304 49.4298C42.9809 49.3065 43.1337 49.1883 43.2904 49.073Z" fill="#8BC540"/>
</svg>
