<?xml version="1.0" encoding="UTF-8"?>
<svg version="1.1" xmlns="http://www.w3.org/2000/svg" width="1348" height="296">
<path d="M0 0 C22.44 0 44.88 0 68 0 C68.99 40.59 68.99 40.59 70 82 C72.97 79.36 75.94 76.72 79 74 C94.97048423 63.95182142 115.70371849 63.00674127 133.875 66.125 C147.30374833 69.22063462 158.87863573 76.06822628 166.375 87.875 C172.6757805 99.37303447 175.33125791 111.28467207 175.22705078 124.31494141 C175.22734283 125.29175873 175.22763489 126.26857605 175.22793579 127.2749939 C175.22655507 130.46727741 175.21105366 133.65932033 175.1953125 136.8515625 C175.19157789 139.07929354 175.18873304 141.30702624 175.18673706 143.53475952 C175.17913588 149.37083548 175.15951783 155.20681038 175.1373291 161.04284668 C175.11679465 167.0090193 175.10771915 172.9752084 175.09765625 178.94140625 C175.07626842 190.62764833 175.04217527 202.31381573 175 214 C176.14339844 213.98839844 177.28679687 213.97679687 178.46484375 213.96484375 C179.95572754 213.95546712 181.44661309 213.94636679 182.9375 213.9375 C183.69224609 213.92912109 184.44699219 213.92074219 185.22460938 213.91210938 C187.14994313 213.90347559 189.07535581 213.94775667 191 214 C192 215 192 215 192 222 C164.28 222 136.56 222 108 222 C108 219.36 108 216.72 108 214 C113.61 214 119.22 214 125 214 C124.89606934 211.44004272 124.89606934 211.44004272 124.79003906 208.82836914 C124.25996377 194.93921546 123.92496422 181.06664484 123.8697052 167.16721725 C123.85932125 164.67067026 123.84542883 162.17416618 123.83044434 159.67764282 C123.82053487 157.99407972 123.81064725 156.31051648 123.80078125 154.62695312 C123.79586922 153.79108358 123.79095718 152.95521404 123.7858963 152.09401512 C123.76240108 147.8061864 123.74800621 143.51860997 123.74951172 139.23071289 C123.75030393 134.98126141 123.72678521 130.73252654 123.6876297 126.48326302 C123.67730805 124.89474786 123.67554114 123.30614877 123.68328094 121.71761894 C123.72813832 111.53298785 122.28097639 103.38639815 118 94 C117.75417175 93.27296371 117.50834351 92.54592743 117.25506592 91.79685974 C116.0594604 88.26856103 114.68733231 86.50255317 111.5625 84.625 C104.03471453 81.19127329 95.43519649 80.66334427 87.36328125 82.6484375 C80.95194131 85.26668104 75.15965085 89.59919757 71.43286133 95.46777344 C69.50897357 100.2104567 69.4496354 104.41383307 69.34765625 109.4921875 C69.29920311 111.15167923 69.29920311 111.15167923 69.24977112 112.84469604 C69.14309192 116.89628897 69.06640452 120.94758198 69 125 C68.9865731 125.81171158 68.97314621 126.62342316 68.95931244 127.45973206 C68.74106638 140.98667009 68.59854421 154.51427746 68.46777344 168.04229736 C68.41673802 173.23916369 68.3614888 178.43598526 68.30664062 183.6328125 C68.20040535 193.75516974 68.0986856 203.87756653 68 214 C69.14339844 213.98839844 70.28679687 213.97679687 71.46484375 213.96484375 C72.95572754 213.95546712 74.44661309 213.94636679 75.9375 213.9375 C76.69224609 213.92912109 77.44699219 213.92074219 78.22460938 213.91210938 C80.14994313 213.90347559 82.07535581 213.94775667 84 214 C85 215 85 215 85 222 C57.28 222 29.56 222 1 222 C1 219.36 1 216.72 1 214 C6.28 214 11.56 214 17 214 C17 145.69 17 77.38 17 7 C11.39 7 5.78 7 0 7 C0 4.69 0 2.38 0 0 Z " fill="#272161" transform="translate(827,0)"/>
<path d="M0 0 C66 0 132 0 200 0 C200 2.31 200 4.62 200 7 C189.11 7 178.22 7 167 7 C167 65.74 167 124.48 167 185 C151.49 185 135.98 185 120 185 C119.5625 170.625 119.5625 170.625 119.43188477 166.15478516 C119.2054659 159.06543331 118.8554821 152.04329437 118 145 C117.48953125 145.50789062 116.9790625 146.01578125 116.453125 146.5390625 C104.17428491 158.1647728 89.53336431 162.55836053 72.82568359 162.34936523 C56.91798002 161.78026839 42.70449938 155.01540767 31.5625 143.81640625 C17.23857646 128.07319151 17.30362159 107.56526738 17.81640625 87.47949219 C18.65115488 71.6592296 25.26429361 57.10562936 36.87109375 46.25 C49.86682112 35.87503262 66.4870912 31.38020513 83 33 C91.42396748 34.29268043 97.98749483 37.20605288 105 42 C104.67 44.31 104.34 46.62 104 49 C103.07058594 48.89300781 102.14117187 48.78601563 101.18359375 48.67578125 C91.59309268 47.53652087 91.59309268 47.53652087 83 51 C74.91984194 57.89426421 71.55982397 68.83390822 70.28125 79.0625 C68.94115458 97.82383585 67.71407935 120.71634167 80.69921875 136 C85.36019329 140.35722563 90.11038227 141.73730748 96.4375 142.3125 C100.72145104 141.93671482 104.09083777 140.71185535 108 139 C108.78375 138.690625 109.5675 138.38125 110.375 138.0625 C112.53759997 136.64849233 112.97343246 135.37393743 114 133 C116.0625 129.625 116.0625 129.625 117.09765625 127.9765625 C119.78193655 122.09671042 119.1704461 115.17860965 119.20532227 108.85400391 C119.21535499 107.72329153 119.22538771 106.59257915 119.23572445 105.42760277 C119.26703927 101.77727667 119.29185173 98.12693968 119.31640625 94.4765625 C119.33481616 92.2189906 119.35365318 89.96142213 119.3729248 87.70385742 C119.44129279 79.34427901 119.50139657 70.98463467 119.5625 62.625 C119.706875 43.93875 119.85125 25.2525 120 6 C80.4 6 40.8 6 0 6 C0 4.02 0 2.04 0 0 Z " fill="#262060" transform="translate(175,37)"/>
<path d="M0 0 C5.96113808 1.94707921 10.83069879 2.67832078 17.10424805 2.33764648 C18.09424805 -0.63235352 19.08424805 -3.60235352 20.10424805 -6.66235352 C22.74424805 -6.66235352 25.38424805 -6.66235352 28.10424805 -6.66235352 C28.10424805 13.79764648 28.10424805 34.25764648 28.10424805 55.33764648 C25.46424805 55.33764648 22.82424805 55.33764648 20.10424805 55.33764648 C19.8619043 54.21487305 19.61956055 53.09209961 19.36987305 51.93530273 C16.86036062 40.24528457 16.86036062 40.24528457 12.10424805 29.33764648 C11.68530273 28.59385742 11.26635742 27.85006836 10.8347168 27.08374023 C3.00201389 14.3313231 -9.04749333 7.48284935 -23.32543945 3.88061523 C-32.52235263 1.93780227 -45.05394303 -0.2133596 -53.77075195 4.27514648 C-54.80200195 4.95577148 -55.83325195 5.63639648 -56.89575195 6.33764648 C-57.88575195 6.66764648 -58.87575195 6.99764648 -59.89575195 7.33764648 C-60.92226568 9.05284395 -60.92226568 9.05284395 -61.89575195 11.33764648 C-62.94762695 12.79170898 -62.94762695 12.79170898 -64.02075195 14.27514648 C-67.05095712 19.56091791 -66.60181096 25.45624775 -65.89575195 31.33764648 C-63.81637031 38.91693106 -58.62156125 43.00294978 -52.1965332 47.02905273 C-40.2094144 53.82411771 -27.26588779 58.71974626 -14.55809021 63.98313904 C12.22293357 75.0884941 12.22293357 75.0884941 21.10424805 82.33764648 C22.18182419 83.1573789 23.25999364 83.97633173 24.33862305 84.79467773 C34.81182485 92.95073377 41.14981565 102.22735273 44.10424805 115.33764648 C44.50976283 118.74732802 44.58229399 122.09386578 44.54174805 125.52514648 C44.53038818 126.89207642 44.53038818 126.89207642 44.51879883 128.28662109 C44.12307526 144.71781471 38.47848349 159.86748882 26.9987793 171.79467773 C12.50894804 184.52461046 -7.306239 188.9747476 -26.2355957 188.58374023 C-45.46542598 187.29080607 -62.62538133 182.25864637 -79.85668945 173.75561523 C-84.79274714 171.45254461 -89.46616969 170.55560789 -94.89575195 171.33764648 C-99.07070735 174.08432766 -99.80503023 177.61118567 -100.89575195 182.33764648 C-103.53575195 182.33764648 -106.17575195 182.33764648 -108.89575195 182.33764648 C-108.89575195 156.59764648 -108.89575195 130.85764648 -108.89575195 104.33764648 C-106.58575195 104.33764648 -104.27575195 104.33764648 -101.89575195 104.33764648 C-101.66500977 105.31862305 -101.43426758 106.29959961 -101.1965332 107.31030273 C-95.52431266 130.99981671 -87.79696595 153.00279427 -66.4230957 166.88061523 C-51.04389819 175.74682956 -32.67225184 179.870191 -15.0012207 176.84155273 C-9.45952837 175.1705484 -4.80629693 172.41166436 -1.67700195 167.37670898 C2.02342387 160.26660508 3.4457692 153.02924727 1.57299805 145.08374023 C-0.89900598 138.00359827 -4.99625534 133.82826328 -11.45825195 130.08764648 C-12.45042725 129.50587646 -12.45042725 129.50587646 -13.46264648 128.91235352 C-23.54082397 123.12027057 -34.17170441 118.45408484 -44.7663269 113.70169067 C-94.09974641 91.57121619 -94.09974641 91.57121619 -102.89575195 69.33764648 C-103.99966106 65.65340664 -104.6177225 62.16827457 -104.89575195 58.33764648 C-104.96407227 57.64155273 -105.03239258 56.94545898 -105.1027832 56.22827148 C-105.86664747 41.17731621 -100.79991117 25.03183253 -91.05981445 13.65014648 C-65.91260083 -13.22196627 -32.28924161 -10.87015781 0 0 Z " fill="#262160" transform="translate(108.895751953125,39.662353515625)"/>
<path d="M0 0 C9.38625642 8.57883652 12.5043052 21.1986282 14.00390625 33.41015625 C14.09634 36.19560769 14.14773356 38.956428 14.14575195 41.74121094 C14.14922638 42.54386383 14.15270081 43.34651672 14.15628052 44.17349243 C14.16359574 45.90582345 14.1689635 47.63816358 14.17257118 49.37050629 C14.17979074 52.1213675 14.19549789 54.87205587 14.21391296 57.62286377 C14.26612415 65.44060901 14.31431904 73.25825601 14.32983398 81.07617188 C14.33996676 85.86958293 14.36942021 90.66255198 14.41115379 95.45578766 C14.4233889 97.27203261 14.42859888 99.08834016 14.42635536 100.90462494 C14.40564023 114.00453027 14.40564023 114.00453027 18.14909363 126.48370361 C19.00390625 128.41015625 19.00390625 128.41015625 19.00390625 130.41015625 C23.95390625 131.07015625 28.90390625 131.73015625 34.00390625 132.41015625 C33.67390625 134.39015625 33.34390625 136.37015625 33.00390625 138.41015625 C15.69325777 145.24421988 -1.92927872 148.62295371 -19.99609375 142.41015625 C-25.66260474 139.77760913 -29.77325323 135.9497098 -33.99609375 131.41015625 C-37.62021756 132.75963805 -40.99579397 134.42597792 -44.41455078 136.22827148 C-62.22220821 145.54983727 -82.22966814 149.7367376 -101.99609375 144.44921875 C-110.92546788 141.35649281 -119.82446174 136.59823338 -124.2734375 127.91796875 C-128.51553721 117.74296803 -129.63541495 106.9764946 -125.99609375 96.41015625 C-120.27598292 83.05030418 -110.59929188 74.37757921 -97.30859375 68.88671875 C-83.98319067 63.90623122 -69.98387047 61.70408264 -55.99609375 59.41015625 C-54.23845703 59.09498047 -54.23845703 59.09498047 -52.4453125 58.7734375 C-47.29804498 58.23131306 -42.16666138 58.33374392 -36.99609375 58.41015625 C-37.09146087 54.00310994 -37.19788867 49.59649281 -37.31347656 45.18994141 C-37.3511623 43.69879989 -37.38610527 42.20758588 -37.41796875 40.71630859 C-37.01000092 18.80796188 -37.01000092 18.80796188 -44.99609375 -0.58984375 C-49.57229091 -3.56938234 -53.60014628 -4.02848962 -58.93359375 -3.90234375 C-59.94969727 -3.90717773 -59.94969727 -3.90717773 -60.98632812 -3.91210938 C-65.69607931 -3.86243798 -69.56889862 -3.03863903 -73.99609375 -1.58984375 C-74.47672802 4.32462795 -73.93988029 9.09662619 -71.99609375 14.72265625 C-69.27269847 22.98037981 -68.32543803 31.21144175 -71.74609375 39.41015625 C-72.46164007 40.76229206 -73.20820977 42.09885285 -73.99609375 43.41015625 C-74.53234375 44.31765625 -75.06859375 45.22515625 -75.62109375 46.16015625 C-81.55584765 51.78255468 -87.47883872 53.74535501 -95.62109375 53.97265625 C-104.20303354 53.6359403 -108.92614779 51.84707664 -114.80859375 45.66015625 C-119.24641389 40.18887115 -121.61365113 34.70971365 -121.27734375 27.53515625 C-119.90438389 17.16168174 -115.39927039 7.93835996 -107.37109375 1.16015625 C-80.28309133 -18.94263415 -27.04346149 -21.53950847 0 0 Z M-71.46875 76.609375 C-77.73779783 84.00075876 -81.47005088 91.96125125 -81.25 101.6875 C-80.3953687 110.85177713 -77.5366067 118.27013282 -70.74609375 124.59765625 C-65.47576154 128.87909884 -59.82591245 131.0029716 -53.00390625 130.6953125 C-46.42149555 129.76045651 -41.75370744 126.93569122 -36.99609375 122.41015625 C-35.84093673 120.09984221 -35.86937267 118.78097077 -35.86669922 116.2109375 C-35.86197098 114.90817871 -35.86197098 114.90817871 -35.85714722 113.57910156 C-35.85917145 112.63647461 -35.86119568 111.69384766 -35.86328125 110.72265625 C-35.86232452 109.75038086 -35.8613678 108.77810547 -35.86038208 107.77636719 C-35.85970032 105.71175065 -35.86155431 103.64713198 -35.86572266 101.58251953 C-35.87102494 98.45079595 -35.86580157 95.31921883 -35.859375 92.1875 C-35.86003668 90.1783851 -35.86131971 88.1692703 -35.86328125 86.16015625 C-35.86125702 85.23372314 -35.85923279 84.30729004 -35.85714722 83.3527832 C-35.87843468 77.31721067 -36.2870326 71.40366868 -36.99609375 65.41015625 C-49.05820478 65.32554088 -62.43721157 68.06364059 -71.46875 76.609375 Z " fill="#272160" transform="translate(504.99609375,79.58984375)"/>
<path d="M0 0 C9.37972304 8.43559337 13.23226616 21.38146074 14.20653152 33.6360817 C14.48954404 39.31734593 14.47623676 45.00061768 14.4765625 50.6875 C14.48836656 52.50682113 14.50173803 54.32613269 14.5165863 56.14543152 C14.55246691 60.89455455 14.57288458 65.64359264 14.58813477 70.39282227 C14.61313905 78.00887088 14.65292072 85.6247321 14.71003532 93.24060631 C14.72622359 95.88219622 14.73012753 98.5236043 14.73304749 101.16523743 C14.74283065 102.79741726 14.75309505 104.4295943 14.76391602 106.06176758 C14.76136307 106.78352676 14.75881012 107.50528595 14.75617981 108.24891663 C14.80135279 112.81725079 15.44892049 116.98503883 16.53394985 121.42316723 C17.03515625 123.48046875 17.03515625 123.48046875 17.33390141 125.52155781 C17.73941118 127.77230357 17.73941118 127.77230357 20.03515625 130.48046875 C24.66667184 131.70533238 29.26261188 132.1715458 34.03515625 132.48046875 C33.7890625 135.34375 33.7890625 135.34375 33.03515625 138.48046875 C23.96566332 145.61678178 5.05488438 146.45318961 -5.96484375 145.48046875 C-18.33922111 143.76586652 -25.88404059 139.73832413 -34.96484375 131.48046875 C-35.80144531 131.99996094 -36.63804688 132.51945313 -37.5 133.0546875 C-56.06305785 144.29341719 -77.21578271 149.46197171 -98.84765625 145.359375 C-108.44007897 142.65474453 -117.54213707 138.11545329 -122.96484375 129.48046875 C-123.39410156 128.81144531 -123.82335938 128.14242187 -124.265625 127.453125 C-127.21999704 121.67636317 -127.37210851 115.77995649 -127.46484375 109.41796875 C-127.49276001 108.15968262 -127.49276001 108.15968262 -127.52124023 106.87597656 C-127.41412562 96.25603043 -122.32984927 88.28420136 -115.29296875 80.671875 C-96.31750016 62.466778 -62.06970657 58.05814395 -36.96484375 58.48046875 C-36.95942557 53.11259606 -36.99416122 47.74683586 -37.0625 42.37939453 C-37.08041078 40.56241009 -37.08827494 38.74529235 -37.08496094 36.92822266 C-37.07067879 24.02429922 -38.31794117 12.25735201 -43.96484375 0.48046875 C-48.61858577 -3.86472887 -53.15726875 -3.67618008 -59.33984375 -3.70703125 C-61.26957031 -3.72830078 -61.26957031 -3.72830078 -63.23828125 -3.75 C-66.87836663 -3.52487942 -69.62412927 -2.95775425 -72.96484375 -1.51953125 C-75.05593289 2.66264702 -74.39167305 7.08442009 -73.0703125 11.40625 C-72.70550781 12.46199219 -72.34070312 13.51773438 -71.96484375 14.60546875 C-69.3180777 22.74427436 -67.9044227 31.94920935 -71.65234375 39.98046875 C-72.38335065 41.17249394 -73.15334644 42.34171186 -73.96484375 43.48046875 C-74.70734375 44.55296875 -75.44984375 45.62546875 -76.21484375 46.73046875 C-81.80952525 52.32515025 -86.39020846 53.74646018 -94.33984375 54.04296875 C-102.18067667 53.80111221 -108.32352744 52.3194348 -113.8359375 46.5078125 C-119.113476 39.73686982 -121.40713965 33.66278258 -120.7890625 25.0234375 C-119.1588632 14.56710867 -113.08084668 6.06360097 -104.96484375 -0.51953125 C-78.08303809 -19.37921987 -26.40173623 -20.41804253 0 0 Z M-73.46484375 78.79296875 C-80.49067325 87.47447528 -80.97514633 96.53935105 -79.96484375 107.48046875 C-78.18781862 115.95307072 -74.19533915 123.04856377 -66.86328125 127.859375 C-60.5937178 131.03846459 -54.27409166 131.76159651 -47.5078125 129.75 C-42.67674076 127.78712674 -39.18840472 125.68470023 -35.96484375 121.48046875 C-35.25106876 117.65664795 -35.35954182 113.89044186 -35.44140625 110.01171875 C-35.44610931 108.89865356 -35.45081238 107.78558838 -35.45565796 106.63879395 C-35.47698787 103.08538719 -35.5335842 99.53347592 -35.58984375 95.98046875 C-35.6063531 93.58855576 -35.62070059 91.1966268 -35.6328125 88.8046875 C-35.6667422 84.41972492 -35.70186248 80.03493584 -35.77197266 75.65039062 C-35.78483307 74.77056519 -35.79769348 73.89073975 -35.8109436 72.98425293 C-35.96942659 70.40591098 -36.40041682 67.99855628 -36.96484375 65.48046875 C-50.50706511 65.00988963 -63.95498299 68.92131981 -73.46484375 78.79296875 Z " fill="#272160" transform="translate(1313.96484375,79.51953125)"/>
<path d="M0 0 C1.13969238 0.00491455 2.27938477 0.0098291 3.45361328 0.01489258 C21.53153068 0.26644059 38.45892111 5.12272307 51.9375 17.6875 C58.55885485 24.80160684 59.86253595 30.83546458 59.5703125 40.60546875 C58.73281785 47.57724442 56.40835369 52.27205628 51.1875 56.9375 C45.71758223 59.47968645 38.97075055 59.05748084 33.125 58.3125 C29.20384396 56.72220064 26.4816976 55.09323883 23.8125 51.8125 C23.32136719 51.2246875 22.83023438 50.636875 22.32421875 50.03125 C19.28724702 45.67858694 19.43951582 40.38960258 20.125 35.3125 C21.44606467 32.36433251 23.18337312 29.88399988 25.125 27.3125 C27.83020256 23.39462043 28.45847551 21.09231567 28.125 16.3125 C15.2564897 9.36233635 -3.31121284 7.73032077 -17.5 11.4375 C-23.58153199 13.70609249 -29.18421681 16.8291622 -32.875 22.25 C-34.52163708 27.29282606 -35.62938 31.24777396 -33.625 36.3125 C-26.22268919 49.16132712 -5.3791271 52.99885278 7.796875 56.91796875 C8.57321793 57.15015106 9.34956085 57.38233337 10.14942932 57.62155151 C14.05388177 58.78770252 17.96183318 59.93663866 21.88061523 61.05371094 C39.03470862 66.04436742 56.77768522 73.21784559 66.90625 88.78125 C70.3885372 96.01369264 71.65687034 102.55429173 71.5625 110.5625 C71.55347656 111.48272949 71.54445313 112.40295898 71.53515625 113.35107422 C71.21680203 125.94596302 67.79830401 135.96865484 59.125 145.3125 C43.2356424 159.59095499 23.37726235 161.91042373 2.9375 161.75 C2.12717316 161.74729095 1.31684631 161.74458191 0.48196411 161.74179077 C-22.61607991 161.62477594 -45.46666665 158.00940703 -63.33984375 141.953125 C-69.8720696 134.97212028 -71.13661542 128.59969903 -71.0234375 119.28515625 C-70.6723954 112.25507633 -68.59526638 108.26302327 -63.875 103.3125 C-58.11857441 99.47488294 -50.62064249 99.60667792 -43.875 100.3125 C-38.79527295 102.70859767 -35.11320321 106.76635803 -31.875 111.3125 C-29.77548926 117.61103223 -30.90958529 122.37366455 -33.65234375 128.18359375 C-34.81565719 130.20917146 -36.03520711 131.73900332 -37.625 133.4375 C-40.39078788 136.9715623 -40.31282211 138.93427893 -39.875 143.3125 C-19.95053766 152.54489739 7.38077183 156.98683679 28.63671875 149.578125 C32.94329769 147.38765157 36.48826555 144.99663505 38.125 140.3125 C38.91036619 134.70274151 38.38705144 130.04773597 35.125 125.3125 C23.86565905 113.0057785 3.99448543 109.78276575 -11.4375 105.75 C-52.95554581 94.84722729 -52.95554581 94.84722729 -63.25 78.875 C-66.18658744 73.83084184 -68.52172132 68.99393722 -69.875 63.3125 C-70.101875 62.36375 -70.32875 61.415 -70.5625 60.4375 C-71.90820554 46.98044458 -70.0225091 35.55972757 -61.81640625 24.55078125 C-45.96766381 5.89142439 -23.83102953 -0.12218317 0 0 Z " fill="#272160" transform="translate(626.875,64.6875)"/>
<path d="M0 0 C18.48 0 36.96 0 56 0 C56 2.64 56 5.28 56 8 C51.5621439 9.11165232 47.23043614 9.11527763 42.6875 9.0625 C41.94693359 9.05798828 41.20636719 9.05347656 40.44335938 9.04882812 C38.62887101 9.03712175 36.81442466 9.01918898 35 9 C34.82304596 9.55642181 34.64609192 10.11284363 34.46377563 10.68612671 C32.75916177 15.93681435 30.82045875 20.99357344 28.5859375 26.0390625 C28.09609627 27.15834137 28.09609627 27.15834137 27.59635925 28.30023193 C26.52618624 30.74342421 25.45058438 33.18418581 24.375 35.625 C23.61278863 37.36261263 22.85099644 39.1004092 22.08959961 40.83837891 C20.51004575 44.44307954 18.92870112 48.04698675 17.34619141 51.65039062 C15.1319498 56.69531359 12.92879872 61.74500107 10.73046875 66.796875 C10.38593658 67.58857086 10.04140442 68.38026672 9.68643188 69.19595337 C8.99258515 70.79047377 8.29876794 72.38500703 7.60498047 73.97955322 C2.90765406 84.77322827 -1.80206564 95.56132411 -6.54296875 106.3359375 C-6.92127838 107.19581772 -7.29958801 108.05569794 -7.68936157 108.94163513 C-10.80603104 116.02529534 -10.80603104 116.02529534 -12.26269531 119.33486938 C-17.23863232 130.64490264 -22.14955492 141.98027434 -26.99334717 153.34750366 C-53.54986379 215.64947963 -53.54986379 215.64947963 -72 224 C-84.57575079 228.20672936 -98.20538256 228.35240168 -110.25 222.6875 C-116.25489573 219.44975058 -121.40378953 216.04404078 -124.3046875 209.6328125 C-126.44653876 201.52265661 -126.3871 191.27916224 -122.3203125 183.828125 C-118.54094981 178.59516128 -113.87251315 175.19062664 -107.6484375 173.40625 C-98.63039024 172.02295071 -88.89896012 173.32597503 -81 178 C-75.99214711 181.91874668 -72.37793913 186.99272174 -68.7734375 192.1796875 C-66.51342357 194.49943749 -65.21694645 194.8550925 -62 195 C-59.32955673 194.63028895 -59.32955673 194.63028895 -57 193 C-55.51568118 190.68904834 -54.37733639 188.60119915 -53.25 186.125 C-52.92 185.42971191 -52.59 184.73442383 -52.25 184.01806641 C-51.53553331 182.50215736 -50.82950075 180.98225163 -50.13085938 179.45898438 C-48.93702367 176.86306182 -47.71156931 174.28342789 -46.484375 171.703125 C-45.65442469 169.92793557 -44.82626937 168.15190572 -44 166.375 C-43.60200195 165.53469238 -43.20400391 164.69438477 -42.79394531 163.82861328 C-42.42881836 163.02665527 -42.06369141 162.22469727 -41.6875 161.3984375 C-41.36136719 160.69380371 -41.03523438 159.98916992 -40.69921875 159.26318359 C-39.08487768 154.03799446 -39.97531422 150.36320755 -42.43800354 145.54562378 C-42.79361862 144.88088043 -43.1492337 144.21613708 -43.515625 143.53125 C-43.8824791 142.82275909 -44.24933319 142.11426819 -44.62730408 141.38430786 C-45.82297903 139.08310636 -47.03607127 136.79161686 -48.25 134.5 C-49.0846053 132.90328391 -49.91834033 131.30611263 -50.7512207 129.70849609 C-55.594057 120.44466287 -60.53422725 111.23495765 -65.59082031 102.0859375 C-70.03952993 94.014052 -74.25122987 85.82450749 -78.46203613 77.62716675 C-82.68009658 69.42040525 -86.98549291 61.27050582 -91.4375 53.1875 C-94.8160541 47.05042193 -98.13136169 40.89866589 -101.25 34.625 C-101.56291992 33.99730713 -101.87583984 33.36961426 -102.19824219 32.72290039 C-103.87134258 29.34465965 -105.495669 25.94744376 -107.08984375 22.53125 C-107.44079102 21.79438965 -107.79173828 21.0575293 -108.15332031 20.29833984 C-108.82416612 18.8885501 -109.48193078 17.47243209 -110.12402344 16.04931641 C-111.5363005 13.1039458 -112.54937454 11.26335254 -115.40625 9.59375 C-118.05955628 8.98636664 -120.59922056 8.59206236 -123.3125 8.375 C-124.19550781 8.30023438 -125.07851563 8.22546875 -125.98828125 8.1484375 C-126.65214844 8.09945312 -127.31601562 8.05046875 -128 8 C-128 5.69 -128 3.38 -128 1 C-98.63 1 -69.26 1 -39 1 C-39 3.31 -39 5.62 -39 8 C-43.29 8.66 -47.58 9.32 -52 10 C-49.19512326 15.63491452 -46.38734934 21.26837357 -43.57714844 26.90063477 C-42.62620076 28.80748631 -41.67597765 30.71469941 -40.7265625 32.62231445 C-35.3962294 43.33097625 -29.99620633 53.99280964 -24.39764404 64.56399536 C-21.30808495 70.39865626 -18.30268158 76.26974363 -15.375 82.1875 C-14.94316406 83.05568359 -14.51132813 83.92386719 -14.06640625 84.81835938 C-13.04230487 86.87794104 -12.02011793 88.93844335 -11 91 C-10.28076095 89.34998101 -9.5615223 87.69996184 -8.84228516 86.04994202 C-8.1862854 84.54500568 -7.53027929 83.04007211 -6.87426758 81.53514099 C-5.00644596 77.25021613 -3.13874253 72.96523982 -1.27124023 68.68017578 C2.3670761 60.33222244 6.00611013 51.98458616 9.64927673 43.63874817 C11.20520938 40.0742808 12.76059821 36.50957625 14.31594849 32.94485474 C15.06117974 31.23727729 15.80668169 29.52981796 16.55245972 27.82247925 C17.59685705 25.43143073 18.64032186 23.03997725 19.68359375 20.6484375 C19.99119629 19.94488632 20.29879883 19.24133514 20.61572266 18.51646423 C22.13566026 15.02971389 23.58685357 11.53286608 25 8 C16.75 8 8.5 8 0 8 C0 5.36 0 2.72 0 0 Z " fill="#272261" transform="translate(1136,69)"/>
<path d="M0 0 C1.65 0 3.3 0 5 0 C5 16.83 5 33.66 5 51 C17.87 51 30.74 51 44 51 C44 52.98 44 54.96 44 57 C31.13 57 18.26 57 5 57 C5.33 57.99 5.66 58.98 6 60 C6.08910338 61.34977079 6.12465133 62.70350477 6.12457275 64.05621338 C6.12713577 64.88007538 6.12969879 65.70393738 6.13233948 66.55276489 C6.13023972 67.45348724 6.12813995 68.35420959 6.12597656 69.28222656 C6.1278447 70.23392731 6.12971283 71.18562805 6.13163757 72.16616821 C6.13564497 74.23687723 6.13771672 76.30759067 6.13809967 78.37830353 C6.14152018 82.79705662 6.16289935 87.21566326 6.18333054 91.63436508 C6.22127649 99.85912636 6.25262757 108.08373494 6.25048828 116.30859375 C6.24969612 122.03110491 6.27328675 127.75308422 6.3123703 133.47545624 C6.32276216 135.64566398 6.32440519 137.81593364 6.31671906 139.98615265 C6.27641546 152.63868884 6.90302825 163.29725427 12 175 C12.52120422 176.19788147 13.04240845 177.39576294 13.57940674 178.62994385 C15.86443044 184.28407279 15.86443044 184.28407279 20.16796875 188.3125 C23.90035284 189.21856841 27.49898637 189.25122626 31.3125 189.1875 C32.03373047 189.18685547 32.75496094 189.18621094 33.49804688 189.18554688 C37.21021069 189.15558322 40.80179756 188.93513572 44.48046875 188.42578125 C46.22263672 188.21501953 46.22263672 188.21501953 48 188 C49 189 49 189 49.125 192.1875 C47.68766864 197.05845628 45.78500535 198.18580762 41.54296875 200.71484375 C31.35720583 205.86248738 21.17247292 206.22725741 9.9375 206.3125 C8.69033203 206.34150391 7.44316406 206.37050781 6.15820312 206.40039062 C-8.20458565 206.49748696 -21.68932973 202.45300752 -32.44140625 192.64453125 C-43.04457943 181.45672196 -45.34334365 164.17374718 -45.22705078 149.38793945 C-45.22734283 148.39146896 -45.22763489 147.39499847 -45.22793579 146.36833191 C-45.22655668 143.11655576 -45.21106308 139.86501673 -45.1953125 136.61328125 C-45.19157732 134.34213893 -45.18873273 132.07099498 -45.18673706 129.79985046 C-45.17914042 123.85364244 -45.15952637 117.9075338 -45.1373291 111.96136475 C-45.11678477 105.88115788 -45.10771705 99.80093478 -45.09765625 93.72070312 C-45.07627643 81.81375164 -45.041127 69.90689967 -45 58 C-52.92 58 -60.84 58 -69 58 C-69 55.36 -69 52.72 -69 50 C-64.35759454 49.24180259 -59.83562394 48.86644639 -55.13623047 48.70996094 C-38.20567133 48.12253974 -25.87305095 43.56429022 -14 31 C-7.4459504 22.9861848 -4.81020847 12.48450172 -1.66088867 2.79077148 C-1 1 -1 1 0 0 Z " fill="#272161" transform="translate(771,19)"/>
</svg>
