<svg width="1394" height="514" viewBox="0 0 1394 514" fill="none" xmlns="http://www.w3.org/2000/svg">
<g opacity="0.1">
<path d="M364.011 133.42C365.9 133.936 367.79 134.451 369.737 134.982C371.474 135.498 373.211 136.013 375.001 136.544C376.552 136.996 378.103 137.449 379.7 137.916C383.25 139.793 383.25 139.793 384.789 142.986C385.098 147.862 384.252 151.621 382.992 156.345C382.517 158.17 382.043 159.995 381.555 161.875C381.044 163.774 380.533 165.673 380.006 167.629C373.785 191.111 369.996 213.976 367.926 238.172C367.811 239.485 367.695 240.798 367.576 242.15C365.352 267.635 364.147 293.087 363.563 318.664C357.462 316.744 351.533 314.598 345.645 312.11C300.089 292.912 251.625 279.73 202.399 274.589C197.121 273.946 197.121 273.946 191.752 272.157C188.289 224.866 206.145 178.367 225.756 136.215C226.321 134.949 226.886 133.683 227.468 132.379C229.161 128.948 229.161 128.948 232.915 123.694C273.49 113.578 324.698 122.523 364.011 133.42Z" fill="#EF5A2A"/>
<path d="M862.88 0.272375C866.49 2.70085 866.49 2.70085 869.969 6.09268C871.899 7.94479 871.899 7.94479 873.87 9.83431C875.189 11.1428 876.509 12.4513 877.868 13.7995C879.174 15.0596 880.48 16.3197 881.825 17.618C885.679 21.3492 889.494 25.1164 893.305 28.8918C894.432 29.9889 895.56 31.086 896.722 32.2164C903.48 38.839 909.649 45.6802 915.452 53.1512C916.289 54.2272 917.126 55.3031 917.989 56.4116C933.287 76.3608 945.139 97.4585 955.944 120.116C954.92 120.699 953.896 121.281 952.841 121.882C919.937 140.701 889.566 161.279 861.09 186.299C859.819 187.392 858.548 188.484 857.238 189.611C849.941 195.904 842.814 202.384 835.698 208.881C834.804 209.696 833.91 210.511 832.989 211.351C828.661 215.32 824.476 219.343 820.395 223.568C816.347 227.439 816.347 227.439 812.768 227.439C812.284 226.3 811.8 225.161 811.301 223.987C790.075 174.272 766.038 127.471 732.944 84.5655C730.205 80.9989 727.568 77.3506 725.072 73.6096C755.156 44.928 818.847 -4.08777 862.88 0.272375Z" fill="#EF5A2A"/>
<path d="M551.208 4.08004C553.659 4.91659 556.103 5.77221 558.542 6.64433C559.855 7.11124 561.168 7.57816 562.52 8.05923C575.611 12.8658 587.949 18.9105 600.254 25.4415C603.046 26.9176 605.862 28.3481 608.681 29.7718C630.261 40.9343 649.331 56.2032 667.825 71.8206C666.786 78.7024 663.648 82.209 659.101 87.36C624.691 128.488 602.064 178.99 580.13 227.439C572.495 221.022 565.085 214.419 557.759 207.651C521.471 174.33 483.284 143.588 438.743 121.905C439.792 112.893 443.89 105.879 448.251 98.0923C449.042 96.6786 449.834 95.2649 450.649 93.8083C464.034 70.4834 480.838 49.8912 499.593 30.6802C500.643 29.6037 501.693 28.5272 502.775 27.418C506.139 23.9841 509.517 20.5645 512.904 17.153C513.963 16.0863 515.021 15.0196 516.112 13.9206C518.924 11.1218 521.777 8.37444 524.649 5.63818C525.814 4.47838 526.979 3.31858 528.179 2.12363C535.597 -1.66186 543.662 1.74551 551.208 4.08004Z" fill="#EF5A2A"/>
<path d="M1161.78 123.694C1164.5 126.976 1164.5 126.976 1166.43 131.268C1167.52 133.623 1167.52 133.623 1168.63 136.026C1169.72 138.555 1169.72 138.555 1170.84 141.134C1171.61 142.849 1172.39 144.563 1173.18 146.329C1175.4 151.285 1177.55 156.262 1179.68 161.257C1180.45 163.064 1180.45 163.064 1181.24 164.907C1194.23 195.665 1203.13 230.96 1202.98 264.555C1202.97 266.7 1202.97 266.7 1202.96 268.887C1202.95 269.966 1202.95 271.046 1202.94 272.157C1201.48 272.372 1200.01 272.587 1198.5 272.808C1140.31 281.453 1085.75 296.606 1031.13 318.664C1031.1 317.291 1031.08 315.919 1031.05 314.504C1030.16 271.996 1027.66 229.756 1018.6 188.088C1018.31 186.744 1018.02 185.4 1017.73 184.015C1014.66 169.811 1011.43 155.667 1007.86 141.581C1019.9 136.401 1031.75 132.539 1044.55 129.731C1046.28 129.352 1048 128.974 1049.78 128.584C1083.37 121.447 1128.27 114.528 1161.78 123.694Z" fill="#EF5A2A"/>
<path d="M138.949 313.074C141.108 313.069 143.268 313.064 145.492 313.06C150.582 313.297 150.582 313.297 152.372 315.086C152.949 318.427 153.426 321.785 153.861 325.147C154.14 327.245 154.42 329.343 154.709 331.505C155.008 333.76 155.307 336.015 155.615 338.339C161.489 380.614 173.133 420.092 188.56 459.876C191.504 467.625 194.297 475.43 197.114 483.225C195.382 483.286 193.65 483.348 191.865 483.411C135.862 485.491 80.9774 490.26 26.868 505.635C23.5127 506.478 23.5127 506.478 19.9333 506.478C4.47411 462.406 -1.31687 420.881 0.246557 374.113C0.259967 372.352 0.273376 370.591 0.287192 368.777C0.777491 355.682 0.77749 355.682 6.57345 349.952C8.6567 348.997 10.74 348.043 12.8864 347.059C14.0557 346.511 15.2251 345.962 16.4299 345.397C20.5408 343.53 24.6961 341.821 28.8818 340.128C30.4901 339.459 32.0984 338.79 33.7555 338.101C67.3562 324.279 102.294 312.994 138.949 313.074Z" fill="#EF5B2A"/>
<path d="M1242.32 313.297C1294 310.315 1345.52 329.523 1390.87 352.649C1394.53 356.306 1393 363.916 1393.02 368.943C1393.04 370.428 1393.05 371.913 1393.06 373.443C1393.09 378.287 1393.1 383.131 1393.11 387.976C1393.11 389.614 1393.11 391.252 1393.11 392.939C1393.08 432.793 1388 468.78 1374.76 506.478C1367.06 505.348 1359.63 503.635 1352.09 501.716C1301.17 488.915 1249.81 486.128 1197.58 483.225C1203.09 466.525 1203.09 466.525 1206.17 458.518C1215.54 433.728 1223.07 408.681 1229.8 383.057C1230.36 380.959 1230.93 378.86 1231.52 376.699C1236.75 355.939 1239.22 334.455 1242.32 313.297Z" fill="#F05A29"/>
<path d="M694.672 105.806C729.49 119.123 755.853 194.551 769.855 225.789C771.672 229.903 773.442 234.035 775.209 238.171C775.904 239.722 776.599 241.273 777.314 242.87C777.988 244.43 778.661 245.99 779.355 247.596C779.974 249.003 780.594 250.409 781.232 251.857C782.607 256.941 782.089 259.992 780.578 265.001C777.572 269.361 777.572 269.361 773.643 273.945C772.181 275.681 770.718 277.417 769.211 279.206C766.123 282.795 762.994 286.334 759.843 289.869C734.481 318.557 715.116 352.387 698.252 386.634C694.227 382.927 691.711 379.54 689.324 374.63C688.663 373.307 688.003 371.984 687.322 370.621C686.61 369.191 685.898 367.761 685.165 366.287C669.403 335.562 649.561 303.142 624.461 279.011C623.05 277.617 623.05 277.617 621.61 276.195C619.008 273.667 616.329 271.217 613.646 268.775C610.096 262.384 610.344 261.473 612.255 254.758C613.418 251.591 614.643 248.446 615.925 245.326C616.504 243.842 617.084 242.358 617.68 240.829C619.516 236.254 621.448 231.733 623.42 227.215C624.128 225.583 624.837 223.951 625.566 222.27C643.887 180.479 666.909 142.033 694.672 105.806Z" fill="#FAAE42"/>
<path d="M972.056 159.468C980.143 189.702 985.565 219.499 988.164 250.692C988.336 252.755 988.509 254.819 988.687 256.944C989.991 274.227 990.167 291.392 990.065 308.714C990.056 311.435 990.048 314.157 990.041 316.878C990.022 323.436 989.991 329.993 989.954 336.55C988.647 337.223 988.647 337.223 987.315 337.909C945.981 359.249 907.295 382.409 871.959 412.864C864.988 418.831 864.988 418.831 861.095 418.831C860.906 417.184 860.717 415.536 860.523 413.839C859.801 407.587 859.069 401.336 858.331 395.086C858.017 392.407 857.706 389.727 857.4 387.047C854.551 362.178 850.428 337.913 843.31 313.856C842.85 312.262 842.391 310.667 841.918 309.025C838.875 298.569 835.494 288.333 831.509 278.194C830.354 272.348 831.262 270.183 834.249 265.002C837.958 260.643 841.99 256.676 846.106 252.704C847.811 251.032 847.811 251.032 849.551 249.325C856.267 242.776 863.076 236.379 870.246 230.325C874.124 227.01 877.827 223.533 881.564 220.06C902.329 201.377 925.251 185.18 948.79 170.2C950.592 169.049 952.394 167.899 954.25 166.713C965.928 159.468 965.928 159.468 972.056 159.468Z" fill="#FAAE42"/>
<path d="M1201.14 313.297C1200.28 363.47 1181.81 413.508 1163.34 459.603C1161.89 463.25 1160.47 466.91 1159.07 470.578C1158.3 472.538 1157.53 474.498 1156.73 476.517C1156.09 478.15 1155.45 479.782 1154.8 481.464C1152.82 485.014 1152.82 485.014 1147.45 486.802C1144.17 487.088 1140.88 487.29 1137.6 487.445C1096.02 489.705 1056.82 496.712 1017.03 508.898C1011.6 510.547 1006.15 512.092 1000.69 513.633C1003.28 504.96 1005.88 496.295 1008.62 487.669C1021.13 447.315 1026.56 405.434 1029.33 363.381C1077.99 338.776 1145.44 310.433 1201.14 313.297Z" fill="#FAAE42"/>
<path d="M193.554 315.086C205.311 314.74 216.168 315.444 227.67 317.881C229.181 318.193 230.692 318.506 232.249 318.829C278.407 328.745 322.299 344.268 365.365 363.381C365.5 365.149 365.5 365.149 365.637 366.953C367.255 387.953 368.878 408.802 372.524 429.563C372.959 432.306 373.39 435.05 373.817 437.794C374.281 440.715 374.744 443.636 375.209 446.556C375.527 448.614 375.527 448.614 375.851 450.713C377.016 457.86 378.613 464.012 381.473 470.704C382.383 474.156 383.238 477.623 384.045 481.101C385.631 487.673 387.362 493.936 389.862 500.218C392.211 506.478 392.211 506.478 392.211 513.633C382.726 511.102 373.268 508.499 363.855 505.709C328.754 495.357 293.692 489.018 257.078 487.413C251.605 487.158 247.108 486.756 241.876 485.013C238.466 479.644 236.201 473.639 233.71 467.797C232.935 465.996 232.159 464.195 231.36 462.34C224.894 446.895 219.472 431.185 214.359 415.254C213.993 414.115 213.626 412.976 213.249 411.802C206.221 389.812 199.385 367.555 195.791 344.711C195.567 343.417 195.343 342.122 195.113 340.788C193.697 332.121 193.355 323.865 193.554 315.086Z" fill="#FAAE42"/>
<path d="M422.638 159.467C431.616 162.035 438.773 165.911 446.576 170.87C447.815 171.653 449.055 172.436 450.332 173.243C479.861 192.189 506.923 214.848 532.377 238.926C534.557 240.968 536.757 242.989 538.968 244.996C542.774 248.457 546.523 251.972 550.267 255.499C551.479 256.582 552.691 257.665 553.94 258.781C561.954 266.485 561.954 266.485 562.715 272.155C562.326 275.93 561.56 279.264 560.446 282.889C559.846 284.871 559.246 286.854 558.628 288.897C557.899 290.899 557.17 292.9 556.419 294.962C544.195 330.004 537.63 366.282 534.913 403.221C534.791 404.738 534.669 406.256 534.544 407.819C534.447 409.169 534.35 410.519 534.25 411.91C533.6 415.253 533.6 415.253 530.021 418.831C528.869 417.876 527.718 416.922 526.532 415.938C489.648 385.543 451.314 361.141 408.321 340.127C407.139 339.537 405.958 338.947 404.741 338.339C404.652 327.621 404.587 316.904 404.545 306.187C404.527 302.553 404.502 298.919 404.471 295.285C404.293 274.051 404.901 253.798 408.321 232.805C408.741 229.462 409.146 226.118 409.53 222.771C412.176 201.076 416.507 180.443 422.638 159.467Z" fill="#F9AE42"/>
</g>
</svg>
