<svg width="100" height="100" viewBox="0 0 100 100" fill="none" xmlns="http://www.w3.org/2000/svg">
<path d="M36.5055 28.1523C30.7115 31.9522 27.6512 37.3574 27.6512 43.7785V47.5703C26.6832 48.6465 26.0879 50.0975 26.0879 51.6928C26.0879 54.3182 27.7133 56.601 30.008 57.3885C31.1504 63.1082 34.3469 67.8762 38.6699 70.8383C39.453 71.3755 40.2749 71.8538 41.1289 72.2691C43.59 73.4637 46.3115 74.1209 49.1635 74.1209C52.0154 74.1209 54.7369 73.4635 57.198 72.2691C58.052 71.8538 58.8739 71.3755 59.657 70.8383V70.8363C63.9799 67.8762 67.1766 63.1084 68.3189 57.3887C70.6137 56.601 72.241 54.3184 72.241 51.693C72.241 50.0016 71.5736 48.4703 70.5014 47.382V36.8022C70.5014 33.357 67.6977 30.5533 64.2525 30.5533H63.8998V29.7297C63.8998 25.8637 59.5869 23.3666 52.9092 23.3666C47.2057 23.3666 41.073 25.1563 36.5055 28.1523ZM61.0723 41.6844L62.7037 48.2799C62.7595 48.5054 62.8704 48.7135 63.0265 48.8856C63.1825 49.0577 63.3787 49.1884 63.5977 49.266C64.0426 49.4223 64.5375 49.3461 64.9145 49.0615C65.3975 48.6928 65.9627 48.5004 66.5479 48.5004C68.1391 48.5004 69.4338 49.9313 69.4338 51.693C69.4338 53.3002 68.3496 54.659 66.9125 54.8516C66.6131 54.8919 66.3348 55.0278 66.1189 55.2391C65.903 55.4503 65.761 55.7256 65.7141 56.024C64.3152 64.8844 57.3549 71.3156 49.1639 71.3156C40.975 71.3156 34.0146 64.8844 32.6158 56.024C32.5688 55.7256 32.4269 55.4504 32.2109 55.2392C31.995 55.0279 31.7167 54.892 31.4174 54.8516C29.9783 54.6592 28.8941 53.3004 28.8941 51.693C28.8941 49.9313 30.1889 48.5004 31.7801 48.5004C32.3652 48.5004 32.9305 48.6928 33.4154 49.0615C33.624 49.219 33.8722 49.3153 34.1323 49.3397C34.3925 49.3641 34.6543 49.3157 34.8885 49.1998C35.1221 49.0834 35.3187 48.9041 35.4561 48.6821C35.5934 48.4601 35.6661 48.2042 35.666 47.9432V45.8348C35.666 43.1352 37.7744 40.9627 40.468 40.8865L48.5066 40.6541C48.561 40.6518 48.6152 40.6464 48.6689 40.6381L57.5773 39.3334C59.1822 39.0971 60.6834 40.107 61.0723 41.6844Z" fill="url(#paint0_linear_1_2079)"/>
<path d="M46.0094 61.3311C45.7724 61.0442 45.4311 60.8632 45.0606 60.8279C44.6902 60.7926 44.3209 60.906 44.034 61.143C43.7471 61.38 43.5661 61.7213 43.5308 62.0917C43.4956 62.4622 43.6089 62.8315 43.8459 63.1184C45.3555 64.9457 47.1951 65.9117 49.1658 65.9117C51.1365 65.9117 52.9762 64.9459 54.4857 63.1184C54.6031 62.9763 54.6913 62.8125 54.7454 62.6364C54.7995 62.4602 54.8183 62.2751 54.8008 62.0917C54.7833 61.9082 54.7299 61.73 54.6435 61.5672C54.5571 61.4045 54.4396 61.2603 54.2975 61.143C54.1554 61.0256 53.9916 60.9374 53.8155 60.8833C53.6393 60.8293 53.4542 60.8104 53.2708 60.8279C53.0874 60.8454 52.9092 60.8988 52.7464 60.9851C52.5836 61.0715 52.4394 61.189 52.3221 61.3311C51.6533 62.1404 50.5631 63.1053 49.1658 63.1053C47.7686 63.1053 46.6779 62.1404 46.0094 61.3311ZM45.4445 53.459C45.4445 51.1629 43.5766 49.2949 41.2805 49.2949C38.9812 49.2949 37.1105 51.1629 37.1105 53.459C37.1105 53.8311 37.2584 54.188 37.5215 54.4511C37.7846 54.7143 38.1415 54.8621 38.5137 54.8621C38.8858 54.8621 39.2427 54.7143 39.5058 54.4511C39.769 54.188 39.9168 53.8311 39.9168 53.459C39.9168 52.7104 40.5283 52.1012 41.2803 52.1012C41.6403 52.1016 41.9854 52.2448 42.2399 52.4993C42.4945 52.7539 42.6377 53.099 42.6381 53.459C42.6381 53.8311 42.7859 54.1881 43.0491 54.4512C43.3122 54.7144 43.6691 54.8622 44.0413 54.8622C44.4135 54.8622 44.7704 54.7144 45.0335 54.4512C45.2967 54.1881 45.4445 53.8311 45.4445 53.459ZM54.2898 54.8621C54.4741 54.8621 54.6566 54.8258 54.8268 54.7553C54.997 54.6848 55.1517 54.5814 55.282 54.4511C55.4123 54.3209 55.5156 54.1662 55.5862 53.9959C55.6567 53.8257 55.693 53.6432 55.693 53.459C55.693 52.7104 56.302 52.1012 57.0508 52.1012C57.7996 52.1012 58.4086 52.7102 58.4086 53.459C58.4086 53.8311 58.5564 54.188 58.8196 54.4511C59.0827 54.7143 59.4396 54.8621 59.8117 54.8621C60.1839 54.8621 60.5407 54.7143 60.8039 54.4511C61.067 54.188 61.2148 53.8311 61.2148 53.459C61.2148 51.1629 59.3469 49.2949 57.0508 49.2949C54.7547 49.2949 52.8867 51.1629 52.8867 53.459C52.8867 53.6433 52.923 53.8257 52.9935 53.996C53.064 54.1662 53.1673 54.3209 53.2976 54.4512C53.4279 54.5815 53.5826 54.6848 53.7529 54.7554C53.9231 54.8259 54.1056 54.8621 54.2898 54.8621ZM31.7188 89.4207C31.7188 90.4508 32.5545 91.2885 33.5826 91.2885C34.6127 91.2885 35.4525 90.4508 35.4525 89.4207C35.4525 88.3885 34.6129 87.5508 33.5826 87.5508C32.5545 87.5508 31.7188 88.3887 31.7188 89.4207Z" fill="url(#paint1_linear_1_2079)"/>
<path d="M71.696 80.8691C71.6899 80.8646 71.6831 80.8612 71.6758 80.8592C71.497 80.7526 71.3152 80.651 71.1307 80.5545C69.5655 79.7149 67.9202 78.8891 66.1444 78.0553V83.6588C68.5413 84.1959 70.6215 86.1238 70.6215 89.3404V92.8957C70.6215 93.6713 69.9922 94.3006 69.2186 94.3006C68.443 94.3006 67.8157 93.6713 67.8157 92.8957V89.3404C67.8157 88.3705 67.5051 87.6068 66.8918 87.0658C66.3448 86.5848 65.5631 86.3082 64.7434 86.3082C63.603 86.3082 61.6731 86.9475 61.6731 89.3404V92.8957C61.6731 93.6713 61.0458 94.3006 60.2702 94.3006C59.4946 94.3006 58.8672 93.6713 58.8672 92.8957V89.3404C58.8672 86.1258 60.9456 84.1979 63.3385 83.6588V76.7766C62.2758 76.3059 61.2082 75.8462 60.136 75.3977L50.1674 85.6047C50.0369 85.7388 49.8807 85.8453 49.7083 85.9179C49.5358 85.9905 49.3505 86.0278 49.1633 86.0275C48.9763 86.0274 48.7911 85.9899 48.6187 85.9173C48.4463 85.8447 48.2901 85.7384 48.1592 85.6047L38.1926 75.3977C37.1182 75.8465 36.0486 76.3068 34.984 76.7785V84.9594C36.878 85.5566 38.2567 87.3303 38.2567 89.4205C38.2567 91.9979 36.1585 94.0961 33.5811 94.0961C31.0057 94.0961 28.9116 91.9977 28.9116 89.4205C28.9116 87.3303 30.2864 85.5586 32.1784 84.9613V78.057C30.4047 78.8908 28.7653 79.7125 27.2061 80.5502C27.0185 80.6483 26.8334 80.7512 26.651 80.8588C26.645 80.8607 26.6389 80.8649 26.6331 80.8688C23.4706 82.6645 21.6569 85.7828 21.6569 89.4244V99.9024H76.6723V89.4248C76.6723 85.7832 74.8585 82.6648 71.696 80.8691ZM40.2936 8.96368L44.5153 12.5324L43.1999 17.8973C43.1336 18.1679 43.1494 18.4522 43.2453 18.7139C43.3411 18.9755 43.5127 19.2027 43.7382 19.3665C43.9636 19.5303 44.2327 19.6233 44.5112 19.6336C44.7896 19.6439 45.0649 19.5711 45.3018 19.4244L49.9993 16.5133L54.6969 19.4242C54.9189 19.5618 55.1749 19.6347 55.436 19.6346C55.6487 19.6346 55.8586 19.5862 56.0499 19.4931C56.2412 19.4001 56.4088 19.2647 56.5401 19.0974C56.6714 18.93 56.7629 18.735 56.8077 18.527C56.8526 18.3191 56.8495 18.1037 56.7989 17.8971L55.4833 12.5316L59.7001 8.9629C59.9129 8.783 60.0673 8.54377 60.1437 8.27574C60.22 8.0077 60.2147 7.723 60.1286 7.45796C60.0425 7.19292 59.8793 6.95954 59.66 6.78761C59.4406 6.61567 59.1751 6.51296 58.8971 6.49258L53.3895 6.08516L51.2981 0.969928C51.1927 0.712004 51.0129 0.491306 50.7816 0.335961C50.5502 0.180615 50.2779 0.0976563 49.9993 0.0976562C49.7206 0.0976563 49.4483 0.180615 49.217 0.335961C48.9857 0.491306 48.8059 0.712004 48.7005 0.969928L46.6092 6.08497L41.096 6.49258C40.8179 6.513 40.5523 6.61578 40.3329 6.78782C40.1136 6.95986 39.9504 7.19334 39.8643 7.45849C39.7782 7.72364 39.7731 8.00843 39.8496 8.27651C39.926 8.5446 40.0806 8.78383 40.2936 8.96368ZM22.6446 41.4281L21.579 37.0801L24.994 34.1932C25.2069 34.0133 25.3614 33.774 25.4378 33.5059C25.5142 33.2378 25.509 32.953 25.4229 32.6879C25.3368 32.4228 25.1736 32.1893 24.9543 32.0173C24.7349 31.8453 24.4693 31.7425 24.1913 31.7221L19.7295 31.394L18.036 27.2506C17.9306 26.9926 17.7509 26.7718 17.5195 26.6164C17.2882 26.461 17.0158 26.378 16.7372 26.378C16.4585 26.378 16.1861 26.461 15.9548 26.6164C15.7235 26.7718 15.5437 26.9926 15.4383 27.2506L13.7448 31.3941L9.28853 31.7223C9.01052 31.7427 8.7449 31.8455 8.52555 32.0175C8.3062 32.1895 8.14305 32.423 8.05693 32.6881C7.9708 32.9532 7.9656 33.238 8.04198 33.5061C8.11837 33.7742 8.27288 34.0135 8.4858 34.1934L11.9008 37.0803L10.8352 41.4283C10.7688 41.699 10.7845 41.9834 10.8803 42.2451C10.9761 42.5068 11.1478 42.7341 11.3733 42.8979C11.5988 43.0617 11.8679 43.1547 12.1465 43.1649C12.425 43.1751 12.7003 43.1021 12.9372 42.9553L16.7376 40.6004L20.5436 42.9555C20.7805 43.1022 21.0558 43.175 21.3342 43.1647C21.6127 43.1543 21.8818 43.0612 22.1071 42.8973C22.3324 42.7334 22.5038 42.5062 22.5995 42.2445C22.6953 41.9829 22.7109 41.6987 22.6446 41.4281ZM20.444 17.7805L23.859 20.6676L22.7934 25.0156C22.7271 25.2863 22.7428 25.5706 22.8387 25.8323C22.9346 26.094 23.1062 26.3213 23.3317 26.485C23.5572 26.6488 23.8264 26.7417 24.1049 26.7519C24.3835 26.762 24.6587 26.6891 24.8956 26.5422L28.7004 24.1832L32.5001 26.5418C32.7369 26.6889 33.0122 26.7621 33.2909 26.752C33.5695 26.742 33.8388 26.6491 34.0645 26.4854C34.2901 26.3216 34.4619 26.0943 34.5578 25.8325C34.6537 25.5707 34.6694 25.2862 34.603 25.0154L33.5374 20.6674L36.9524 17.7803C37.1654 17.6004 37.3199 17.3611 37.3963 17.093C37.4727 16.8249 37.4675 16.5401 37.3813 16.275C37.2952 16.0099 37.132 15.7764 36.9126 15.6044C36.6932 15.4325 36.4275 15.3297 36.1495 15.3094L31.6932 14.9813L29.9997 10.8379C29.8943 10.58 29.7144 10.3593 29.4831 10.2039C29.2518 10.0486 28.9795 9.96562 28.7008 9.96562C28.4222 9.96562 28.1499 10.0486 27.9186 10.2039C27.6873 10.3593 27.5074 10.58 27.402 10.8379L25.7085 14.9813L21.2467 15.3094C20.9688 15.3299 20.7032 15.4327 20.4839 15.6048C20.2646 15.7768 20.1015 16.0102 20.0154 16.2753C19.9293 16.5404 19.9241 16.8251 20.0004 17.0932C20.0768 17.3612 20.2312 17.6005 20.444 17.7805ZM91.9417 32.6877C91.8555 32.4226 91.6923 32.1891 91.473 32.0171C91.2536 31.8451 90.988 31.7423 90.71 31.7219L86.2483 31.3938L84.5547 27.2504C84.4493 26.9925 84.2695 26.7717 84.0382 26.6164C83.8069 26.4611 83.5346 26.3781 83.2559 26.3781H83.2551C82.9763 26.3783 82.7039 26.4615 82.4726 26.6171C82.2413 26.7727 82.0616 26.9936 81.9563 27.2518L80.268 31.394L75.8073 31.7221C75.5293 31.7426 75.2638 31.8454 75.0445 32.0174C74.8252 32.1894 74.6621 32.4228 74.5759 32.6878C74.4898 32.9529 74.4845 33.2376 74.5607 33.5056C74.637 33.7737 74.7914 34.013 75.0042 34.193L78.4192 37.0801L77.3536 41.4281C77.2871 41.6988 77.3029 41.9832 77.3987 42.2449C77.4945 42.5066 77.6661 42.7339 77.8916 42.8977C78.1171 43.0615 78.3863 43.1545 78.6648 43.1647C78.9434 43.1749 79.2186 43.1019 79.4555 42.9551L83.2561 40.6006L87.0622 42.9557C87.2991 43.1024 87.5743 43.1752 87.8528 43.1649C88.1312 43.1545 88.4003 43.0614 88.6256 42.8975C88.851 42.7336 89.0225 42.5064 89.1183 42.2448C89.2141 41.9832 89.2298 41.6989 89.1635 41.4283L88.0979 37.0803L91.5129 34.1932C91.7258 34.0132 91.8803 33.7739 91.9567 33.5058C92.033 33.2376 92.0278 32.9528 91.9417 32.6877ZM63.0403 17.7805L66.4553 20.6674L65.3897 25.0154C65.3233 25.2862 65.3391 25.5705 65.4349 25.8322C65.5308 26.094 65.7025 26.3212 65.928 26.485C66.1536 26.6488 66.4228 26.7417 66.7014 26.7518C66.9799 26.762 67.2552 26.6889 67.492 26.542L71.2969 24.183L75.0963 26.5416C75.3185 26.6796 75.5749 26.7526 75.8364 26.7525C76.0491 26.7526 76.259 26.7042 76.4503 26.6112C76.6416 26.5181 76.8092 26.3828 76.9405 26.2155C77.0718 26.0481 77.1633 25.8531 77.2081 25.6452C77.253 25.4372 77.2499 25.2218 77.1993 25.0152L76.1337 20.6672L79.5487 17.7803C79.7616 17.6004 79.9161 17.3611 79.9925 17.093C80.0689 16.8249 80.0637 16.5402 79.9776 16.275C79.8914 16.0099 79.7283 15.7764 79.5089 15.6044C79.2896 15.4324 79.024 15.3296 78.746 15.3092L74.2897 14.9811L72.5962 10.8377C72.4907 10.5798 72.3109 10.3591 72.0796 10.2037C71.8483 10.0484 71.576 9.96543 71.2973 9.96543C71.0187 9.96543 70.7464 10.0484 70.515 10.2037C70.2837 10.3591 70.1039 10.5798 69.9985 10.8377L68.3049 14.9811L63.843 15.3092C63.565 15.3297 63.2994 15.4325 63.0801 15.6045C62.8607 15.7766 62.6976 16.0101 62.6115 16.2752C62.5254 16.5403 62.5202 16.8251 62.5965 17.0932C62.6729 17.3612 62.8274 17.6005 63.0403 17.7805Z" fill="url(#paint2_linear_1_2079)"/>
<defs>
<linearGradient id="paint0_linear_1_2079" x1="49.1645" y1="23.3666" x2="49.1645" y2="74.1209" gradientUnits="userSpaceOnUse">
<stop stop-color="#039347"/>
<stop offset="1" stop-color="#8BC540"/>
</linearGradient>
<linearGradient id="paint1_linear_1_2079" x1="46.4668" y1="49.2949" x2="46.4668" y2="91.2885" gradientUnits="userSpaceOnUse">
<stop stop-color="#039347"/>
<stop offset="1" stop-color="#8BC540"/>
</linearGradient>
<linearGradient id="paint2_linear_1_2079" x1="49.9993" y1="0.0976562" x2="49.9993" y2="99.9024" gradientUnits="userSpaceOnUse">
<stop stop-color="#039347"/>
<stop offset="1" stop-color="#8BC540"/>
</linearGradient>
</defs>
</svg>
