<svg width="100" height="100" viewBox="0 0 100 100" fill="none" xmlns="http://www.w3.org/2000/svg">
<path d="M65.1717 94.4062C65.2284 94.6063 65.2445 94.8157 65.2192 95.0221C65.1938 95.2284 65.1276 95.4277 65.0243 95.6082C64.9209 95.7886 64.7826 95.9466 64.6175 96.0729C64.4523 96.1992 64.2636 96.2913 64.0624 96.3437C55.9454 98.7983 47.3287 99.0945 39.0624 97.2031C38.8623 97.157 38.6733 97.0718 38.5061 96.9526C38.339 96.8334 38.1969 96.6824 38.0881 96.5083C37.9793 96.3342 37.9058 96.1404 37.8719 95.9379C37.838 95.7354 37.8443 95.5282 37.8905 95.3281C37.9367 95.1281 38.0218 94.9391 38.141 94.7719C38.2602 94.6047 38.4112 94.4627 38.5853 94.3539C38.7594 94.245 38.9532 94.1716 39.1557 94.1377C39.3582 94.1038 39.5654 94.1101 39.7655 94.1562C47.5141 95.9358 55.5931 95.6611 63.203 93.3594C63.4009 93.2969 63.6094 93.2745 63.8161 93.2934C64.0228 93.3124 64.2237 93.3723 64.407 93.4698C64.5903 93.5673 64.7523 93.7003 64.8836 93.8611C65.0149 94.0218 65.1129 94.2072 65.1717 94.4062ZM92.1874 70.6719C91.8225 70.4781 91.3957 70.4367 91.0004 70.5568C90.6051 70.6768 90.2735 70.9485 90.078 71.3125C86.3332 78.3378 80.8177 84.2627 74.078 88.5C73.7257 88.7196 73.4752 89.0702 73.3814 89.4746C73.2876 89.8789 73.3584 90.304 73.578 90.6562C73.7976 91.0085 74.1482 91.2591 74.5526 91.3528C74.9569 91.4466 75.382 91.3759 75.7342 91.1562C82.9128 86.6168 88.7832 80.2833 92.7655 72.7813C92.9643 72.4239 93.0151 72.0029 92.907 71.6085C92.799 71.2142 92.5406 70.8779 92.1874 70.6719ZM85.9374 73.4375C90.4855 66.4676 92.9018 58.3225 92.8905 50C92.8905 49.5856 92.7259 49.1882 92.4328 48.8951C92.1398 48.6021 91.7424 48.4375 91.328 48.4375C90.9136 48.4375 90.5162 48.6021 90.2231 48.8951C89.9301 49.1882 89.7655 49.5856 89.7655 50C89.777 57.7115 87.5399 65.2591 83.328 71.7188C79.8867 76.9836 75.2573 81.3669 69.8124 84.5156C69.6256 84.6133 69.4606 84.7477 69.3272 84.9109C69.1938 85.074 69.0947 85.2624 69.036 85.4648C68.9773 85.6672 68.9601 85.8793 68.9855 86.0885C69.0109 86.2977 69.0784 86.4996 69.1839 86.6821C69.2893 86.8645 69.4306 87.0237 69.5992 87.1502C69.7678 87.2766 69.9602 87.3676 70.1649 87.4178C70.3696 87.4679 70.5823 87.4761 70.7902 87.4419C70.9981 87.4077 71.197 87.3318 71.3749 87.2187C77.2397 83.8267 82.2274 79.1066 85.9374 73.4375ZM50.6874 84.2812C50.273 84.2812 49.8755 84.4459 49.5825 84.7389C49.2895 85.0319 49.1249 85.4293 49.1249 85.8437C49.1249 86.2581 49.2895 86.6556 49.5825 86.9486C49.8755 87.2416 50.273 87.4062 50.6874 87.4062C60.3694 87.2837 69.6141 83.3545 76.4217 76.4687C81.7186 70.9531 87.3592 59.8125 87.3592 50.0313C87.3592 49.6168 87.1946 49.2194 86.9016 48.9264C86.6086 48.6334 86.2111 48.4688 85.7967 48.4688C85.3823 48.4688 84.9849 48.6334 84.6919 48.9264C84.3989 49.2194 84.2342 49.6168 84.2342 50.0313C84.2342 59.5625 78.3436 69.9688 74.1717 74.3125C67.9523 80.5844 59.5193 84.164 50.6874 84.2812ZM36.328 6.70312C36.4782 6.72514 36.6309 6.72514 36.7811 6.70312C44.3914 4.40426 52.4697 4.1296 60.2186 5.90625C60.6309 6.00156 61.0642 5.92917 61.4232 5.70501C61.7822 5.48084 62.0374 5.12327 62.1327 4.71094C62.228 4.29861 62.1556 3.8653 61.9314 3.50635C61.7073 3.14739 61.3497 2.89219 60.9374 2.79687C52.6707 0.908389 44.0548 1.20456 35.9374 3.65625C35.523 3.71634 35.1494 3.93858 34.8989 4.2741C34.6483 4.60961 34.5413 5.03091 34.6014 5.44531C34.6615 5.85971 34.8838 6.23327 35.2193 6.48381C35.5548 6.73434 35.9761 6.84134 36.3905 6.78125L36.328 6.70312ZM7.81236 29.3281C8.17722 29.5219 8.60398 29.5633 8.99928 29.4432C9.39458 29.3232 9.72625 29.0515 9.92173 28.6875C13.6671 21.6626 19.1825 15.7379 25.9217 11.5C26.1473 11.4284 26.3536 11.3064 26.5252 11.1434C26.6967 10.9803 26.829 10.7804 26.912 10.5588C26.995 10.3372 27.0266 10.0996 27.0043 9.86394C26.9821 9.62832 26.9066 9.40083 26.7836 9.19864C26.6606 8.99645 26.4932 8.82485 26.2942 8.69679C26.0952 8.56874 25.8697 8.48756 25.6347 8.4594C25.3997 8.43124 25.1614 8.45683 24.9377 8.53424C24.7141 8.61165 24.5109 8.73885 24.3436 8.90625C17.144 13.4174 11.2464 19.7296 7.23423 27.2188C7.03542 27.5761 6.9846 27.9971 7.09269 28.3915C7.20077 28.7858 7.45914 29.1221 7.81236 29.3281ZM30.1405 15.4844C30.3272 15.3867 30.4922 15.2523 30.6257 15.0891C30.7591 14.926 30.8581 14.7376 30.9169 14.5352C30.9756 14.3328 30.9927 14.1207 30.9673 13.9115C30.9419 13.7023 30.8744 13.5004 30.769 13.3179C30.6635 13.1355 30.5223 12.9762 30.3537 12.8498C30.1851 12.7234 29.9926 12.6324 29.788 12.5822C29.5833 12.5321 29.3706 12.5239 29.1626 12.5581C28.9547 12.5923 28.7558 12.6682 28.578 12.7812C22.7298 16.1787 17.7585 20.8984 14.0624 26.5625C9.49772 33.5272 7.06493 41.6727 7.06236 50C7.06236 50.4144 7.22698 50.8118 7.52 51.1049C7.81303 51.3979 8.21045 51.5625 8.62486 51.5625C9.03926 51.5625 9.43668 51.3979 9.72971 51.1049C10.0227 50.8118 10.1874 50.4144 10.1874 50C10.1767 42.2886 12.4138 34.7413 16.6249 28.2812C20.0666 23.0167 24.6959 18.6336 30.1405 15.4844ZM49.3124 15.7344C49.5176 15.7344 49.7207 15.694 49.9103 15.6154C50.0999 15.5369 50.2721 15.4218 50.4172 15.2767C50.5623 15.1316 50.6774 14.9594 50.7559 14.7698C50.8344 14.5802 50.8749 14.3771 50.8749 14.1719C50.8749 13.7575 50.7102 13.36 50.4172 13.067C50.1242 12.774 49.7268 12.6094 49.3124 12.6094C39.6303 12.732 30.3856 16.6611 23.578 23.5469C18.2186 29.0625 12.4999 40.2031 12.4999 50C12.4999 50.4144 12.6645 50.8118 12.9575 51.1049C13.2505 51.3979 13.648 51.5625 14.0624 51.5625C14.4768 51.5625 14.8742 51.3979 15.1672 51.1049C15.4602 50.8118 15.6249 50.4144 15.6249 50C15.6249 40.4687 21.5155 30.0625 25.6874 25.7187C31.9362 19.4014 40.427 15.8074 49.3124 15.7188V15.7344ZM74.7342 35.4844V43.75C74.7342 68.3906 50.8905 79.6875 50.6561 79.7969C50.4504 79.8921 50.2265 79.9414 49.9999 79.9414C49.7732 79.9414 49.5493 79.8921 49.3436 79.7969C49.1092 79.6875 25.2655 68.3125 25.2655 43.75V35.4844C25.2655 35.2132 25.3361 34.9467 25.4704 34.7111C25.6046 34.4755 25.7979 34.2789 26.0311 34.1406L49.203 20.3125C49.4405 20.1754 49.71 20.1032 49.9842 20.1032C50.2585 20.1032 50.528 20.1754 50.7655 20.3125L73.9374 34.0937C74.1834 34.232 74.3874 34.4343 74.5277 34.6791C74.668 34.924 74.7394 35.2022 74.7342 35.4844ZM61.0467 44.2187C60.754 43.9277 60.358 43.7644 59.9452 43.7644C59.5324 43.7644 59.1364 43.9277 58.8436 44.2187L48.0936 54.9687L42.0311 48.8906C41.7322 48.6346 41.3477 48.5009 40.9545 48.5161C40.5612 48.5313 40.1882 48.6943 39.9099 48.9726C39.6316 49.2508 39.4686 49.6239 39.4534 50.0171C39.4382 50.4103 39.572 50.7948 39.828 51.0938L46.9999 58.2656C47.2926 58.5566 47.6886 58.72 48.1014 58.72C48.5142 58.72 48.9102 58.5566 49.203 58.2656L61.0624 46.4063C61.3534 46.1135 61.5167 45.7175 61.5167 45.3047C61.5167 44.8919 61.3534 44.4959 61.0624 44.2031L61.0467 44.2187Z" fill="url(#paint0_linear_1_2073)"/>
<defs>
<linearGradient id="paint0_linear_1_2073" x1="8.04673" y1="25.7812" x2="91.953" y2="74.2188" gradientUnits="userSpaceOnUse">
<stop stop-color="#EF5A2A"/>
<stop offset="1" stop-color="#FAAE42"/>
</linearGradient>
</defs>
</svg>
